<svg width="24" height="23" viewBox="0 0 24 23" fill="none" xmlns="http://www.w3.org/2000/svg">
<path d="M23.2501 11.9999C23.2501 12.2486 23.1513 12.487 22.9755 12.6629C22.7997 12.8387 22.5612 12.9374 22.3126 12.9374H9.18755C8.93891 12.9374 8.70045 12.8387 8.52464 12.6629C8.34882 12.487 8.25005 12.2486 8.25005 11.9999C8.25005 11.7513 8.34882 11.5128 8.52464 11.337C8.70045 11.1612 8.93891 11.0624 9.18755 11.0624H22.3126C22.5612 11.0624 22.7997 11.1612 22.9755 11.337C23.1513 11.5128 23.2501 11.7513 23.2501 11.9999ZM9.18755 5.43744H22.3126C22.5612 5.43744 22.7997 5.33867 22.9755 5.16285C23.1513 4.98704 23.2501 4.74858 23.2501 4.49994C23.2501 4.2513 23.1513 4.01284 22.9755 3.83703C22.7997 3.66121 22.5612 3.56244 22.3126 3.56244H9.18755C8.93891 3.56244 8.70045 3.66121 8.52464 3.83703C8.34882 4.01284 8.25005 4.2513 8.25005 4.49994C8.25005 4.74858 8.34882 4.98704 8.52464 5.16285C8.70045 5.33867 8.93891 5.43744 9.18755 5.43744ZM22.3126 18.5624H9.18755C8.93891 18.5624 8.70045 18.6612 8.52464 18.837C8.34882 19.0128 8.25005 19.2513 8.25005 19.4999C8.25005 19.7486 8.34882 19.987 8.52464 20.1629C8.70045 20.3387 8.93891 20.4374 9.18755 20.4374H22.3126C22.5612 20.4374 22.7997 20.3387 22.9755 20.1629C23.1513 19.987 23.2501 19.7486 23.2501 19.4999C23.2501 19.2513 23.1513 19.0128 22.9755 18.837C22.7997 18.6612 22.5612 18.5624 22.3126 18.5624ZM2.10708 3.464L2.62505 3.20385V9.18744C2.62505 9.43608 2.72382 9.67454 2.89964 9.85035C3.07545 10.0262 3.31391 10.1249 3.56255 10.1249C3.81119 10.1249 4.04965 10.0262 4.22546 9.85035C4.40128 9.67454 4.50005 9.43608 4.50005 9.18744V1.68744C4.50017 1.52755 4.45939 1.3703 4.38159 1.23061C4.3038 1.09093 4.19157 0.973464 4.05558 0.88938C3.91959 0.805296 3.76436 0.757389 3.60463 0.750213C3.44491 0.743036 3.286 0.776828 3.14302 0.848377L1.26802 1.78588C1.04549 1.89714 0.876269 2.09225 0.797592 2.32829C0.758635 2.44516 0.743079 2.56856 0.751812 2.69144C0.760545 2.81432 0.793396 2.93428 0.84849 3.04447C0.903583 3.15466 0.97984 3.25291 1.07291 3.33363C1.16597 3.41435 1.27403 3.47594 1.3909 3.5149C1.62693 3.59358 1.88455 3.57527 2.10708 3.464ZM6.3481 15.3656C6.29626 14.9943 6.16987 14.6373 5.97654 14.3161C5.78321 13.9949 5.52693 13.7161 5.2231 13.4964C4.61455 13.0545 3.8587 12.8651 3.11368 12.9678C2.36865 13.0704 1.6922 13.4572 1.22583 14.0472C1.04759 14.2761 0.906413 14.5315 0.807474 14.8042C0.75581 14.9216 0.728775 15.0483 0.728043 15.1766C0.72731 15.3048 0.752896 15.4318 0.803217 15.5498C0.853538 15.6678 0.927525 15.7741 1.0206 15.8624C1.11368 15.9506 1.22386 16.0188 1.34434 16.0627C1.46482 16.1066 1.59304 16.1254 1.72105 16.1178C1.84907 16.1102 1.97417 16.0764 2.08861 16.0185C2.20305 15.9607 2.3044 15.8799 2.38639 15.7813C2.46838 15.6827 2.52927 15.5683 2.56529 15.4452C2.5981 15.3554 2.64476 15.2711 2.70357 15.1956C2.86894 14.9896 3.10741 14.8552 3.36933 14.8205C3.63126 14.7858 3.89648 14.8534 4.10982 15.0093C4.21244 15.0819 4.29923 15.1746 4.3649 15.2818C4.43058 15.3889 4.47377 15.5084 4.49185 15.6328C4.50839 15.7522 4.50062 15.8738 4.469 15.9902C4.43738 16.1066 4.38258 16.2154 4.30786 16.3101C4.30445 16.3142 4.30132 16.3185 4.29849 16.323L0.93638 20.8136C0.832194 20.953 0.768852 21.1186 0.753442 21.2919C0.738031 21.4652 0.771162 21.6394 0.849126 21.795C0.927089 21.9505 1.04681 22.0813 1.19488 22.1727C1.34296 22.2641 1.51355 22.3125 1.68755 22.3124H5.43755C5.68619 22.3124 5.92465 22.2137 6.10046 22.0379C6.27628 21.862 6.37505 21.6236 6.37505 21.3749C6.37505 21.1263 6.27628 20.8878 6.10046 20.712C5.92465 20.5362 5.68619 20.4374 5.43755 20.4374H3.56255L5.79849 17.4456C6.02518 17.1537 6.19069 16.819 6.28512 16.4616C6.37955 16.1042 6.40097 15.7314 6.3481 15.3656Z" fill="white"/>
</svg>
