<svg width="29" height="23" viewBox="0 0 29 23" fill="none" xmlns="http://www.w3.org/2000/svg">
<path d="M27.5096 3.99679L24.6971 1.23586C24.3457 0.885921 23.87 0.689453 23.374 0.689453C22.8781 0.689453 22.4024 0.885921 22.051 1.23586L11.1877 11.9374L11.1748 11.9245L6.88107 7.79132C6.52878 7.44268 6.05279 7.2477 5.55715 7.24902C5.06152 7.25034 4.58657 7.44784 4.23614 7.79836L1.42364 10.6109C1.07264 10.9624 0.875488 11.4389 0.875488 11.9357C0.875488 12.4324 1.07264 12.9089 1.42364 13.2605L9.81661 21.698C9.99073 21.8721 10.1974 22.0103 10.425 22.1045C10.6525 22.1988 10.8963 22.2473 11.1426 22.2473C11.3889 22.2473 11.6327 22.1988 11.8602 22.1045C12.0877 22.0103 12.2944 21.8721 12.4686 21.698L27.5154 6.65343C27.6899 6.47885 27.8282 6.27153 27.9224 6.04338C28.0165 5.81522 28.0647 5.57072 28.0642 5.3239C28.0636 5.07707 28.0144 4.83279 27.9192 4.60505C27.824 4.37731 27.6848 4.17061 27.5096 3.99679ZM11.1432 20.3749L2.75021 11.9374L5.56271 9.12492L5.5756 9.13781L9.86935 13.271C10.2205 13.6188 10.6947 13.8139 11.1889 13.8139C11.6831 13.8139 12.1573 13.6188 12.5084 13.271L23.3822 2.56242L26.1877 5.32804L11.1432 20.3749Z" fill="white"/>
</svg>
