<svg width="26" height="26" viewBox="0 0 26 26" fill="none" xmlns="http://www.w3.org/2000/svg">
<path d="M24.8508 12.3367L13.6008 1.08672C13.4697 0.955464 13.3026 0.866057 13.1206 0.829822C12.9386 0.793587 12.75 0.812154 12.5786 0.883172C12.4072 0.95419 12.2608 1.07447 12.1578 1.22877C12.0548 1.38308 11.9999 1.56448 12 1.75001V6.43751H9.1875C8.93886 6.43751 8.7004 6.53628 8.52459 6.71209C8.34877 6.88791 8.25 7.12637 8.25 7.37501V18.625C8.25 18.8736 8.34877 19.1121 8.52459 19.2879C8.7004 19.4637 8.93886 19.5625 9.1875 19.5625H12V24.25C11.9999 24.4355 12.0548 24.6169 12.1578 24.7712C12.2608 24.9255 12.4072 25.0458 12.5786 25.1168C12.75 25.1879 12.9386 25.2064 13.1206 25.1702C13.3026 25.134 13.4697 25.0445 13.6008 24.9133L24.8508 13.6633C24.9379 13.5762 25.0071 13.4728 25.0543 13.359C25.1015 13.2452 25.1257 13.1232 25.1257 13C25.1257 12.8768 25.1015 12.7548 25.0543 12.641C25.0071 12.5272 24.9379 12.4238 24.8508 12.3367ZM13.875 21.9871V18.625C13.875 18.3764 13.7762 18.1379 13.6004 17.9621C13.4246 17.7863 13.1861 17.6875 12.9375 17.6875H10.125V8.31251H12.9375C13.1861 8.31251 13.4246 8.21373 13.6004 8.03792C13.7762 7.8621 13.875 7.62365 13.875 7.37501V4.0129L22.8621 13L13.875 21.9871ZM2.625 7.37501V18.625C2.625 18.8736 2.52623 19.1121 2.35041 19.2879C2.1746 19.4637 1.93614 19.5625 1.6875 19.5625C1.43886 19.5625 1.2004 19.4637 1.02459 19.2879C0.848772 19.1121 0.75 18.8736 0.75 18.625V7.37501C0.75 7.12637 0.848772 6.88791 1.02459 6.71209C1.2004 6.53628 1.43886 6.43751 1.6875 6.43751C1.93614 6.43751 2.1746 6.53628 2.35041 6.71209C2.52623 6.88791 2.625 7.12637 2.625 7.37501ZM6.375 7.37501V18.625C6.375 18.8736 6.27623 19.1121 6.10041 19.2879C5.9246 19.4637 5.68614 19.5625 5.4375 19.5625C5.18886 19.5625 4.9504 19.4637 4.77459 19.2879C4.59877 19.1121 4.5 18.8736 4.5 18.625V7.37501C4.5 7.12637 4.59877 6.88791 4.77459 6.71209C4.9504 6.53628 5.18886 6.43751 5.4375 6.43751C5.68614 6.43751 5.9246 6.53628 6.10041 6.71209C6.27623 6.88791 6.375 7.12637 6.375 7.37501Z" fill="white"/>
</svg>
