<svg width="24" height="22" viewBox="0 0 24 22" fill="none" xmlns="http://www.w3.org/2000/svg">
<path d="M23.25 11C23.25 11.2487 23.1513 11.4871 22.9754 11.6629C22.7996 11.8388 22.5612 11.9375 22.3125 11.9375H12C11.7514 11.9375 11.5129 11.8388 11.3371 11.6629C11.1613 11.4871 11.0625 11.2487 11.0625 11C11.0625 10.7514 11.1613 10.5129 11.3371 10.3371C11.5129 10.1613 11.7514 10.0625 12 10.0625H22.3125C22.5612 10.0625 22.7996 10.1613 22.9754 10.3371C23.1513 10.5129 23.25 10.7514 23.25 11ZM12 4.43753H22.3125C22.5612 4.43753 22.7996 4.33876 22.9754 4.16295C23.1513 3.98713 23.25 3.74867 23.25 3.50003C23.25 3.25139 23.1513 3.01294 22.9754 2.83712C22.7996 2.66131 22.5612 2.56253 22.3125 2.56253H12C11.7514 2.56253 11.5129 2.66131 11.3371 2.83712C11.1613 3.01294 11.0625 3.25139 11.0625 3.50003C11.0625 3.74867 11.1613 3.98713 11.3371 4.16295C11.5129 4.33876 11.7514 4.43753 12 4.43753ZM22.3125 17.5625H12C11.7514 17.5625 11.5129 17.6613 11.3371 17.8371C11.1613 18.0129 11.0625 18.2514 11.0625 18.5C11.0625 18.7487 11.1613 18.9871 11.3371 19.1629C11.5129 19.3388 11.7514 19.4375 12 19.4375H22.3125C22.5612 19.4375 22.7996 19.3388 22.9754 19.1629C23.1513 18.9871 23.25 18.7487 23.25 18.5C23.25 18.2514 23.1513 18.0129 22.9754 17.8371C22.7996 17.6613 22.5612 17.5625 22.3125 17.5625ZM6.64925 0.961752L3.56253 4.04964L2.35081 2.83675C2.1749 2.66084 1.93631 2.56201 1.68753 2.56201C1.43875 2.56201 1.20016 2.66084 1.02425 2.83675C0.848339 3.01266 0.749512 3.25125 0.749512 3.50003C0.749512 3.74881 0.848339 3.9874 1.02425 4.16331L2.89925 6.03831C2.98632 6.12548 3.08972 6.19463 3.20353 6.24181C3.31734 6.28899 3.43933 6.31327 3.56253 6.31327C3.68573 6.31327 3.80773 6.28899 3.92154 6.24181C4.03535 6.19463 4.13875 6.12548 4.22581 6.03831L7.97581 2.28831C8.15173 2.1124 8.25055 1.87381 8.25055 1.62503C8.25055 1.37625 8.15173 1.13766 7.97581 0.961752C7.7999 0.785839 7.56131 0.687012 7.31253 0.687012C7.06375 0.687012 6.82516 0.785839 6.64925 0.961752ZM6.64925 8.46175L3.56253 11.5496L2.35081 10.3368C2.1749 10.1608 1.93631 10.062 1.68753 10.062C1.43875 10.062 1.20016 10.1608 1.02425 10.3368C0.848339 10.5127 0.749512 10.7513 0.749512 11C0.749512 11.1232 0.773774 11.2452 0.820914 11.359C0.868054 11.4728 0.937148 11.5762 1.02425 11.6633L2.89925 13.5383C2.98632 13.6255 3.08972 13.6946 3.20353 13.7418C3.31734 13.789 3.43933 13.8133 3.56253 13.8133C3.68573 13.8133 3.80773 13.789 3.92154 13.7418C4.03535 13.6946 4.13875 13.6255 4.22581 13.5383L7.97581 9.78831C8.15173 9.6124 8.25055 9.37381 8.25055 9.12503C8.25055 8.87625 8.15173 8.63766 7.97581 8.46175C7.7999 8.28584 7.56131 8.18701 7.31253 8.18701C7.06375 8.18701 6.82516 8.28584 6.64925 8.46175ZM6.64925 15.9618L3.56253 19.0496L2.35081 17.8368C2.26371 17.7496 2.1603 17.6806 2.0465 17.6334C1.93269 17.5863 1.81072 17.562 1.68753 17.562C1.56435 17.562 1.44237 17.5863 1.32857 17.6334C1.21476 17.6806 1.11136 17.7496 1.02425 17.8368C0.937148 17.9239 0.868054 18.0273 0.820914 18.1411C0.773774 18.2549 0.749512 18.3769 0.749512 18.5C0.749512 18.6232 0.773774 18.7452 0.820914 18.859C0.868054 18.9728 0.937148 19.0762 1.02425 19.1633L2.89925 21.0383C2.98632 21.1255 3.08972 21.1946 3.20353 21.2418C3.31734 21.289 3.43933 21.3133 3.56253 21.3133C3.68573 21.3133 3.80773 21.289 3.92154 21.2418C4.03535 21.1946 4.13875 21.1255 4.22581 21.0383L7.97581 17.2883C8.15173 17.1124 8.25055 16.8738 8.25055 16.625C8.25055 16.3763 8.15173 16.1377 7.97581 15.9618C7.7999 15.7858 7.56131 15.687 7.31253 15.687C7.06375 15.687 6.82516 15.7858 6.64925 15.9618Z" fill="white"/>
</svg>
