<svg width="25" height="19" viewBox="0 0 25 19" fill="none" xmlns="http://www.w3.org/2000/svg">
<path d="M22.5 0H1.875C1.37772 0 0.900805 0.197544 0.549175 0.549175C0.197544 0.900805 0 1.37772 0 1.875V16.875C0 17.3723 0.197544 17.8492 0.549175 18.2008C0.900805 18.5525 1.37772 18.75 1.875 18.75H22.5C22.9973 18.75 23.4742 18.5525 23.8258 18.2008C24.1775 17.8492 24.375 17.3723 24.375 16.875V1.875C24.375 1.37772 24.1775 0.900805 23.8258 0.549175C23.4742 0.197544 22.9973 0 22.5 0ZM9.375 11.25V7.5H15V11.25H9.375ZM15 13.125V16.875H9.375V13.125H15ZM1.875 7.5H7.5V11.25H1.875V7.5ZM9.375 5.625V1.875H15V5.625H9.375ZM16.875 7.5H22.5V11.25H16.875V7.5ZM22.5 5.625H16.875V1.875H22.5V5.625ZM7.5 1.875V5.625H1.875V1.875H7.5ZM1.875 13.125H7.5V16.875H1.875V13.125ZM22.5 16.875H16.875V13.125H22.5V16.875Z" fill="white"/>
</svg>
