<svg width="26" height="26" viewBox="0 0 26 26" fill="none" xmlns="http://www.w3.org/2000/svg">
<path d="M1.1875 12.8126C1.28599 12.8865 1.39807 12.9402 1.51733 12.9708C1.63659 13.0013 1.76071 13.0081 1.88258 12.9907C2.00446 12.9733 2.12171 12.932 2.22765 12.8693C2.33359 12.8066 2.42613 12.7236 2.5 12.6251C3.06762 11.8683 3.80364 11.254 4.64979 10.8309C5.49594 10.4079 6.42898 10.1876 7.375 10.1876C8.32103 10.1876 9.25406 10.4079 10.1002 10.8309C10.9464 11.254 11.6824 11.8683 12.25 12.6251C12.3994 12.8238 12.6215 12.9551 12.8677 12.9901C13.1138 13.025 13.3637 12.9608 13.5625 12.8114C13.6334 12.7587 13.6961 12.696 13.7488 12.6251C14.3164 11.8683 15.0525 11.254 15.8986 10.8309C16.7448 10.4079 17.6778 10.1876 18.6238 10.1876C19.5699 10.1876 20.5029 10.4079 21.349 10.8309C22.1952 11.254 22.9312 11.8683 23.4988 12.6251C23.6482 12.824 23.8704 12.9555 24.1167 12.9905C24.3629 13.0256 24.613 12.9614 24.8119 12.812C25.0108 12.6627 25.1423 12.4404 25.1773 12.1942C25.2124 11.9479 25.1482 11.6979 24.9988 11.4989C24.169 10.3864 23.0624 9.51054 21.7891 8.95832C22.4871 8.32098 22.9762 7.48749 23.1921 6.56722C23.408 5.64695 23.3406 4.68292 22.9988 3.80162C22.6571 2.92033 22.0568 2.16296 21.2769 1.62891C20.4969 1.09486 19.5738 0.809082 18.6285 0.809082C17.6833 0.809082 16.7601 1.09486 15.9802 1.62891C15.2002 2.16296 14.6 2.92033 14.2582 3.80162C13.9164 4.68292 13.849 5.64695 14.0649 6.56722C14.2808 7.48749 14.7699 8.32098 15.468 8.95832C14.5486 9.35588 13.7134 9.92501 13.007 10.6353C12.3007 9.92501 11.4655 9.35588 10.5461 8.95832C11.2442 8.32098 11.7332 7.48749 11.9491 6.56722C12.165 5.64695 12.0977 4.68292 11.7559 3.80162C11.4141 2.92033 10.8138 2.16296 10.0339 1.62891C9.25397 1.09486 8.3308 0.809082 7.38555 0.809082C6.44029 0.809082 5.51713 1.09486 4.7372 1.62891C3.95726 2.16296 3.35701 2.92033 3.01522 3.80162C2.67342 4.68292 2.60605 5.64695 2.82195 6.56722C3.03785 7.48749 3.52693 8.32098 4.225 8.95832C2.94608 9.50874 1.83402 10.3852 1 11.5001C0.926132 11.5986 0.872385 11.7107 0.841831 11.8299C0.811276 11.9492 0.804511 12.0733 0.821922 12.1952C0.839333 12.3171 0.880579 12.4343 0.943305 12.5403C1.00603 12.6462 1.08901 12.7387 1.1875 12.8126ZM18.625 2.68761C19.1813 2.68761 19.725 2.85256 20.1875 3.1616C20.6501 3.47065 21.0105 3.9099 21.2234 4.42382C21.4363 4.93773 21.492 5.50323 21.3835 6.0488C21.2749 6.59438 21.0071 7.09552 20.6137 7.48885C20.2204 7.88219 19.7193 8.15005 19.1737 8.25857C18.6281 8.36709 18.0626 8.3114 17.5487 8.09852C17.0348 7.88565 16.5955 7.52517 16.2865 7.06265C15.9775 6.60014 15.8125 6.05637 15.8125 5.50011C15.8125 4.75419 16.1088 4.03882 16.6363 3.51137C17.1637 2.98393 17.8791 2.68761 18.625 2.68761ZM7.375 2.68761C7.93126 2.68761 8.47503 2.85256 8.93754 3.1616C9.40005 3.47065 9.76054 3.9099 9.97341 4.42382C10.1863 4.93773 10.242 5.50323 10.1335 6.0488C10.0249 6.59438 9.75707 7.09552 9.36374 7.48885C8.9704 7.88219 8.46926 8.15005 7.92369 8.25857C7.37812 8.36709 6.81262 8.3114 6.2987 8.09852C5.78479 7.88565 5.34553 7.52517 5.03649 7.06265C4.72745 6.60014 4.5625 6.05637 4.5625 5.50011C4.5625 4.75419 4.85882 4.03882 5.38626 3.51137C5.91371 2.98393 6.62908 2.68761 7.375 2.68761ZM21.7891 21.1458C22.4871 20.5085 22.9762 19.675 23.1921 18.7547C23.408 17.8345 23.3406 16.8704 22.9988 15.9891C22.6571 15.1078 22.0568 14.3505 21.2769 13.8164C20.4969 13.2824 19.5738 12.9966 18.6285 12.9966C17.6833 12.9966 16.7601 13.2824 15.9802 13.8164C15.2002 14.3505 14.6 15.1078 14.2582 15.9891C13.9164 16.8704 13.849 17.8345 14.0649 18.7547C14.2808 19.675 14.7699 20.5085 15.468 21.1458C14.5486 21.5434 13.7134 22.1125 13.007 22.8228C12.3007 22.1125 11.4655 21.5434 10.5461 21.1458C11.2442 20.5085 11.7332 19.675 11.9491 18.7547C12.165 17.8345 12.0977 16.8704 11.7559 15.9891C11.4141 15.1078 10.8138 14.3505 10.0339 13.8164C9.25397 13.2824 8.3308 12.9966 7.38555 12.9966C6.44029 12.9966 5.51713 13.2824 4.7372 13.8164C3.95726 14.3505 3.35701 15.1078 3.01522 15.9891C2.67342 16.8704 2.60605 17.8345 2.82195 18.7547C3.03785 19.675 3.52693 20.5085 4.225 21.1458C2.94608 21.6962 1.83402 22.5727 1 23.6876C0.926132 23.7861 0.872385 23.8982 0.841831 24.0174C0.811276 24.1367 0.804511 24.2608 0.821922 24.3827C0.839333 24.5046 0.880579 24.6218 0.943305 24.7278C1.00603 24.8337 1.08901 24.9262 1.1875 25.0001C1.28599 25.074 1.39807 25.1277 1.51733 25.1583C1.63659 25.1888 1.76071 25.1956 1.88258 25.1782C2.00446 25.1608 2.12171 25.1195 2.22765 25.0568C2.33359 24.9941 2.42613 24.9111 2.5 24.8126C3.06762 24.0558 3.80364 23.4415 4.64979 23.0184C5.49594 22.5954 6.42898 22.3751 7.375 22.3751C8.32103 22.3751 9.25406 22.5954 10.1002 23.0184C10.9464 23.4415 11.6824 24.0558 12.25 24.8126C12.3994 25.0113 12.6215 25.1426 12.8677 25.1776C13.1138 25.2125 13.3637 25.1483 13.5625 24.9989C13.6334 24.9462 13.6961 24.8835 13.7488 24.8126C14.3164 24.0558 15.0525 23.4415 15.8986 23.0184C16.7448 22.5954 17.6778 22.3751 18.6238 22.3751C19.5699 22.3751 20.5029 22.5954 21.349 23.0184C22.1952 23.4415 22.9312 24.0558 23.4988 24.8126C23.6482 25.0115 23.8704 25.143 24.1167 25.178C24.3629 25.2131 24.613 25.1489 24.8119 24.9995C25.0108 24.8502 25.1423 24.6279 25.1773 24.3817C25.2124 24.1354 25.1482 23.8854 24.9988 23.6864C24.169 22.5739 23.0624 21.698 21.7891 21.1458ZM7.375 14.8751C7.93126 14.8751 8.47503 15.0401 8.93754 15.3491C9.40005 15.6581 9.76054 16.0974 9.97341 16.6113C10.1863 17.1252 10.242 17.6907 10.1335 18.2363C10.0249 18.7819 9.75707 19.283 9.36374 19.6764C8.9704 20.0697 8.46926 20.3376 7.92369 20.4461C7.37812 20.5546 6.81262 20.4989 6.2987 20.286C5.78479 20.0732 5.34553 19.7127 5.03649 19.2502C4.72745 18.7876 4.5625 18.2439 4.5625 17.6876C4.5625 16.9417 4.85882 16.2263 5.38626 15.6989C5.91371 15.1714 6.62908 14.8751 7.375 14.8751ZM18.625 14.8751C19.1813 14.8751 19.725 15.0401 20.1875 15.3491C20.6501 15.6581 21.0105 16.0974 21.2234 16.6113C21.4363 17.1252 21.492 17.6907 21.3835 18.2363C21.2749 18.7819 21.0071 19.283 20.6137 19.6764C20.2204 20.0697 19.7193 20.3376 19.1737 20.4461C18.6281 20.5546 18.0626 20.4989 17.5487 20.286C17.0348 20.0732 16.5955 19.7127 16.2865 19.2502C15.9775 18.7876 15.8125 18.2439 15.8125 17.6876C15.8125 16.9417 16.1088 16.2263 16.6363 15.6989C17.1637 15.1714 17.8791 14.8751 18.625 14.8751Z" fill="white"/>
</svg>
