<svg width="24" height="26" viewBox="0 0 24 26" fill="none" xmlns="http://www.w3.org/2000/svg">
<path d="M21.375 2.75H18.5625V1.8125C18.5625 1.56386 18.4637 1.3254 18.2879 1.14959C18.1121 0.973772 17.8736 0.875 17.625 0.875C17.3764 0.875 17.1379 0.973772 16.9621 1.14959C16.7863 1.3254 16.6875 1.56386 16.6875 1.8125V2.75H7.3125V1.8125C7.3125 1.56386 7.21373 1.3254 7.03791 1.14959C6.8621 0.973772 6.62364 0.875 6.375 0.875C6.12636 0.875 5.8879 0.973772 5.71209 1.14959C5.53627 1.3254 5.4375 1.56386 5.4375 1.8125V2.75H2.625C2.12772 2.75 1.65081 2.94754 1.29917 3.29917C0.947544 3.65081 0.75 4.12772 0.75 4.625V23.375C0.75 23.8723 0.947544 24.3492 1.29917 24.7008C1.65081 25.0525 2.12772 25.25 2.625 25.25H21.375C21.8723 25.25 22.3492 25.0525 22.7008 24.7008C23.0525 24.3492 23.25 23.8723 23.25 23.375V4.625C23.25 4.12772 23.0525 3.65081 22.7008 3.29917C22.3492 2.94754 21.8723 2.75 21.375 2.75ZM5.4375 4.625V5.5625C5.4375 5.81114 5.53627 6.0496 5.71209 6.22541C5.8879 6.40123 6.12636 6.5 6.375 6.5C6.62364 6.5 6.8621 6.40123 7.03791 6.22541C7.21373 6.0496 7.3125 5.81114 7.3125 5.5625V4.625H16.6875V5.5625C16.6875 5.81114 16.7863 6.0496 16.9621 6.22541C17.1379 6.40123 17.3764 6.5 17.625 6.5C17.8736 6.5 18.1121 6.40123 18.2879 6.22541C18.4637 6.0496 18.5625 5.81114 18.5625 5.5625V4.625H21.375V8.375H2.625V4.625H5.4375ZM21.375 23.375H2.625V10.25H21.375V23.375ZM15.4758 14.6633L13.3254 16.8125L15.4758 18.9617C15.5629 19.0488 15.632 19.1522 15.6791 19.266C15.7263 19.3798 15.7505 19.5018 15.7505 19.625C15.7505 19.7482 15.7263 19.8702 15.6791 19.984C15.632 20.0978 15.5629 20.2012 15.4758 20.2883C15.3887 20.3754 15.2853 20.4445 15.1715 20.4916C15.0577 20.5388 14.9357 20.563 14.8125 20.563C14.6893 20.563 14.5673 20.5388 14.4535 20.4916C14.3397 20.4445 14.2363 20.3754 14.1492 20.2883L12 18.1379L9.85078 20.2883C9.76368 20.3754 9.66027 20.4445 9.54647 20.4916C9.43266 20.5388 9.31068 20.563 9.1875 20.563C9.06432 20.563 8.94234 20.5388 8.82853 20.4916C8.71473 20.4445 8.61132 20.3754 8.52422 20.2883C8.43711 20.2012 8.36802 20.0978 8.32088 19.984C8.27374 19.8702 8.24948 19.7482 8.24948 19.625C8.24948 19.5018 8.27374 19.3798 8.32088 19.266C8.36802 19.1522 8.43711 19.0488 8.52422 18.9617L10.6746 16.8125L8.52422 14.6633C8.34831 14.4874 8.24948 14.2488 8.24948 14C8.24948 13.7512 8.34831 13.5126 8.52422 13.3367C8.70013 13.1608 8.93872 13.062 9.1875 13.062C9.43628 13.062 9.67487 13.1608 9.85078 13.3367L12 15.4871L14.1492 13.3367C14.2363 13.2496 14.3397 13.1805 14.4535 13.1334C14.5673 13.0862 14.6893 13.062 14.8125 13.062C14.9357 13.062 15.0577 13.0862 15.1715 13.1334C15.2853 13.1805 15.3887 13.2496 15.4758 13.3367C15.5629 13.4238 15.632 13.5272 15.6791 13.641C15.7263 13.7548 15.7505 13.8768 15.7505 14C15.7505 14.1232 15.7263 14.2452 15.6791 14.359C15.632 14.4728 15.5629 14.5762 15.4758 14.6633Z" fill="white"/>
</svg>
