<svg width="22" height="26" viewBox="0 0 22 26" fill="none" xmlns="http://www.w3.org/2000/svg">
<path d="M5.375 12.0625H16.625C16.8736 12.0625 17.1121 11.9637 17.2879 11.7879C17.4637 11.6121 17.5625 11.3736 17.5625 11.125V5.5C17.5625 5.25136 17.4637 5.0129 17.2879 4.83709C17.1121 4.66127 16.8736 4.5625 16.625 4.5625H5.375C5.12636 4.5625 4.8879 4.66127 4.71209 4.83709C4.53627 5.0129 4.4375 5.25136 4.4375 5.5V11.125C4.4375 11.3736 4.53627 11.6121 4.71209 11.7879C4.8879 11.9637 5.12636 12.0625 5.375 12.0625ZM6.3125 6.4375H15.6875V10.1875H6.3125V6.4375ZM19.4375 0.8125H2.5625C2.06522 0.8125 1.58831 1.01004 1.23667 1.36167C0.885044 1.71331 0.6875 2.19022 0.6875 2.6875V23.3125C0.6875 23.8098 0.885044 24.2867 1.23667 24.6383C1.58831 24.99 2.06522 25.1875 2.5625 25.1875H19.4375C19.9348 25.1875 20.4117 24.99 20.7633 24.6383C21.115 24.2867 21.3125 23.8098 21.3125 23.3125V2.6875C21.3125 2.19022 21.115 1.71331 20.7633 1.36167C20.4117 1.01004 19.9348 0.8125 19.4375 0.8125ZM19.4375 23.3125H2.5625V2.6875H19.4375V23.3125ZM7.71875 15.3438C7.71875 15.6219 7.63628 15.8938 7.48175 16.125C7.32723 16.3563 7.10761 16.5365 6.85065 16.643C6.59369 16.7494 6.31094 16.7772 6.03815 16.723C5.76537 16.6687 5.5148 16.5348 5.31813 16.3381C5.12146 16.1415 4.98753 15.8909 4.93327 15.6181C4.87901 15.3453 4.90686 15.0626 5.01329 14.8056C5.11973 14.5486 5.29997 14.329 5.53123 14.1745C5.76249 14.02 6.03437 13.9375 6.3125 13.9375C6.68546 13.9375 7.04315 14.0857 7.30687 14.3494C7.57059 14.6131 7.71875 14.9708 7.71875 15.3438ZM12.4062 15.3438C12.4062 15.6219 12.3238 15.8938 12.1693 16.125C12.0147 16.3563 11.7951 16.5365 11.5381 16.643C11.2812 16.7494 10.9984 16.7772 10.7257 16.723C10.4529 16.6687 10.2023 16.5348 10.0056 16.3381C9.80896 16.1415 9.67503 15.8909 9.62077 15.6181C9.56651 15.3453 9.59436 15.0626 9.70079 14.8056C9.80723 14.5486 9.98747 14.329 10.2187 14.1745C10.45 14.02 10.7219 13.9375 11 13.9375C11.373 13.9375 11.7306 14.0857 11.9944 14.3494C12.2581 14.6131 12.4062 14.9708 12.4062 15.3438ZM17.0938 15.3438C17.0938 15.6219 17.0113 15.8938 16.8568 16.125C16.7022 16.3563 16.4826 16.5365 16.2256 16.643C15.9687 16.7494 15.6859 16.7772 15.4132 16.723C15.1404 16.6687 14.8898 16.5348 14.6931 16.3381C14.4965 16.1415 14.3625 15.8909 14.3083 15.6181C14.254 15.3453 14.2819 15.0626 14.3883 14.8056C14.4947 14.5486 14.675 14.329 14.9062 14.1745C15.1375 14.02 15.4094 13.9375 15.6875 13.9375C16.0605 13.9375 16.4181 14.0857 16.6819 14.3494C16.9456 14.6131 17.0938 14.9708 17.0938 15.3438ZM7.71875 20.0312C7.71875 20.3094 7.63628 20.5813 7.48175 20.8125C7.32723 21.0438 7.10761 21.224 6.85065 21.3305C6.59369 21.4369 6.31094 21.4647 6.03815 21.4105C5.76537 21.3562 5.5148 21.2223 5.31813 21.0256C5.12146 20.829 4.98753 20.5784 4.93327 20.3056C4.87901 20.0328 4.90686 19.7501 5.01329 19.4931C5.11973 19.2361 5.29997 19.0165 5.53123 18.862C5.76249 18.7075 6.03437 18.625 6.3125 18.625C6.68546 18.625 7.04315 18.7732 7.30687 19.0369C7.57059 19.3006 7.71875 19.6583 7.71875 20.0312ZM12.4062 20.0312C12.4062 20.3094 12.3238 20.5813 12.1693 20.8125C12.0147 21.0438 11.7951 21.224 11.5381 21.3305C11.2812 21.4369 10.9984 21.4647 10.7257 21.4105C10.4529 21.3562 10.2023 21.2223 10.0056 21.0256C9.80896 20.829 9.67503 20.5784 9.62077 20.3056C9.56651 20.0328 9.59436 19.7501 9.70079 19.4931C9.80723 19.2361 9.98747 19.0165 10.2187 18.862C10.45 18.7075 10.7219 18.625 11 18.625C11.373 18.625 11.7306 18.7732 11.9944 19.0369C12.2581 19.3006 12.4062 19.6583 12.4062 20.0312ZM17.0938 20.0312C17.0938 20.3094 17.0113 20.5813 16.8568 20.8125C16.7022 21.0438 16.4826 21.224 16.2256 21.3305C15.9687 21.4369 15.6859 21.4647 15.4132 21.4105C15.1404 21.3562 14.8898 21.2223 14.6931 21.0256C14.4965 20.829 14.3625 20.5784 14.3083 20.3056C14.254 20.0328 14.2819 19.7501 14.3883 19.4931C14.4947 19.2361 14.675 19.0165 14.9062 18.862C15.1375 18.7075 15.4094 18.625 15.6875 18.625C16.0605 18.625 16.4181 18.7732 16.6819 19.0369C16.9456 19.3006 17.0938 19.6583 17.0938 20.0312Z" fill="white"/>
</svg>
