<svg width="29" height="22" viewBox="0 0 29 22" fill="none" xmlns="http://www.w3.org/2000/svg">
<path d="M29.0002 12.9375C29.0002 13.1862 28.9014 13.4246 28.7256 13.6005C28.5498 13.7763 28.3113 13.875 28.0627 13.875H26.1877V15.75C26.1877 15.9987 26.0889 16.2371 25.9131 16.413C25.7373 16.5888 25.4988 16.6875 25.2502 16.6875C25.0015 16.6875 24.7631 16.5888 24.5873 16.413C24.4115 16.2371 24.3127 15.9987 24.3127 15.75V13.875H22.4377C22.189 13.875 21.9506 13.7763 21.7748 13.6005C21.599 13.4246 21.5002 13.1862 21.5002 12.9375C21.5002 12.6889 21.599 12.4504 21.7748 12.2746C21.9506 12.0988 22.189 12 22.4377 12H24.3127V10.125C24.3127 9.87641 24.4115 9.63795 24.5873 9.46214C24.7631 9.28632 25.0015 9.18755 25.2502 9.18755C25.4988 9.18755 25.7373 9.28632 25.9131 9.46214C26.0889 9.63795 26.1877 9.87641 26.1877 10.125V12H28.0627C28.3113 12 28.5498 12.0988 28.7256 12.2746C28.9014 12.4504 29.0002 12.6889 29.0002 12.9375ZM22.2185 19.834C22.3786 20.0246 22.4564 20.2709 22.4349 20.5188C22.4134 20.7667 22.2942 20.9958 22.1037 21.1559C21.9132 21.316 21.6669 21.3938 21.419 21.3723C21.1711 21.3507 20.9419 21.2316 20.7818 21.0411C18.424 18.2332 15.1826 16.6875 11.6564 16.6875C8.13026 16.6875 4.88886 18.2332 2.53104 21.0411C2.37098 21.2314 2.14185 21.3504 1.89406 21.3718C1.64627 21.3933 1.40012 21.3154 1.20975 21.1553C1.01939 20.9953 0.900405 20.7661 0.878978 20.5183C0.85755 20.2705 0.935434 20.0244 1.0955 19.834C2.84628 17.7504 5.02362 16.2704 7.44354 15.4782C5.9739 14.5628 4.84236 13.1937 4.22011 11.578C3.59786 9.96232 3.51876 8.1879 3.99477 6.52324C4.47079 4.85857 5.47602 3.39422 6.85839 2.35174C8.24076 1.30926 9.92505 0.745361 11.6564 0.745361C13.3878 0.745361 15.0721 1.30926 16.4545 2.35174C17.8368 3.39422 18.8421 4.85857 19.3181 6.52324C19.7941 8.1879 19.715 9.96232 19.0928 11.578C18.4705 13.1937 17.339 14.5628 15.8693 15.4782C18.2892 16.2704 20.4666 17.7504 22.2185 19.834ZM11.6564 14.8125C12.8617 14.8125 14.0398 14.4552 15.0419 13.7856C16.0441 13.116 16.8251 12.1643 17.2863 11.0508C17.7475 9.93729 17.8682 8.71204 17.6331 7.52997C17.398 6.34789 16.8176 5.26209 15.9654 4.40987C15.1131 3.55764 14.0273 2.97727 12.8453 2.74214C11.6632 2.50701 10.4379 2.62769 9.32446 3.08891C8.21097 3.55013 7.25926 4.33118 6.58967 5.33329C5.92008 6.3354 5.56268 7.51357 5.56268 8.7188C5.56454 10.3344 6.20716 11.8833 7.34956 13.0257C8.49195 14.1681 10.0408 14.8107 11.6564 14.8125Z" fill="white"/>
</svg>
