<svg width="29" height="24" viewBox="0 0 29 24" fill="none" xmlns="http://www.w3.org/2000/svg">
<path d="M26.9918 14.5305C26.6429 14.2621 26.2369 14.0777 25.8052 13.9917C25.3735 13.9058 24.9278 13.9205 24.5027 14.0348L19.5996 15.1621C19.7137 14.6802 19.7172 14.1788 19.6099 13.6953C19.5026 13.2119 19.2873 12.759 18.9801 12.3706C18.6729 11.9822 18.2817 11.6684 17.836 11.4527C17.3902 11.237 16.9015 11.1249 16.4062 11.125H10.5398C10.0472 11.1238 9.55917 11.2202 9.10398 11.4086C8.6488 11.5971 8.23548 11.8739 7.88789 12.223L5.23711 14.875H1.875C1.37772 14.875 0.900806 15.0725 0.549175 15.4242C0.197544 15.7758 0 16.2527 0 16.75L0 21.4375C0 21.9348 0.197544 22.4117 0.549175 22.7633C0.900806 23.115 1.37772 23.3125 1.875 23.3125H14.0625C14.1392 23.3125 14.2155 23.3031 14.2898 23.2844L21.7898 21.4094C21.8376 21.398 21.8843 21.3823 21.9293 21.3625L26.4844 19.4242L26.5359 19.4008C26.9737 19.182 27.3486 18.8554 27.6253 18.4518C27.9019 18.0481 28.0713 17.5806 28.1173 17.0934C28.1634 16.6062 28.0847 16.1153 27.8886 15.6669C27.6925 15.2185 27.3855 14.8274 26.9965 14.5305H26.9918ZM1.875 16.75H4.6875V21.4375H1.875V16.75ZM25.7145 17.7121L21.2613 19.6082L13.9453 21.4375H6.5625V16.2004L9.21445 13.5496C9.38793 13.3747 9.59444 13.2361 9.82197 13.1418C10.0495 13.0474 10.2935 12.9992 10.5398 13H16.4062C16.7792 13 17.1369 13.1482 17.4006 13.4119C17.6643 13.6756 17.8125 14.0333 17.8125 14.4063C17.8125 14.7792 17.6643 15.1369 17.4006 15.4006C17.1369 15.6643 16.7792 15.8125 16.4062 15.8125H13.125C12.8764 15.8125 12.6379 15.9113 12.4621 16.0871C12.2863 16.2629 12.1875 16.5014 12.1875 16.75C12.1875 16.9986 12.2863 17.2371 12.4621 17.4129C12.6379 17.5887 12.8764 17.6875 13.125 17.6875H16.875C16.9456 17.6873 17.0159 17.6794 17.0848 17.6641L24.9363 15.8582L24.9727 15.8488C25.2123 15.7823 25.4682 15.8067 25.6909 15.9175C25.9136 16.0282 26.0876 16.2174 26.1792 16.4487C26.2708 16.6799 26.2737 16.9369 26.1872 17.1701C26.1008 17.4034 25.9311 17.5964 25.7109 17.7121H25.7145ZM19.2188 9.25C19.4504 9.25026 19.6816 9.23145 19.9102 9.19375C20.1672 9.95728 20.6375 10.6312 21.2655 11.136C21.8934 11.6407 22.6527 11.955 23.4537 12.0419C24.2546 12.1287 25.0637 11.9844 25.7852 11.626C26.5067 11.2675 27.1106 10.71 27.5253 10.0193C27.94 9.32864 28.1483 8.53364 28.1255 7.72832C28.1027 6.92301 27.8498 6.14106 27.3966 5.47492C26.9435 4.80878 26.3091 4.28632 25.5685 3.96929C24.8279 3.65227 24.0119 3.55394 23.2172 3.68594C22.9697 2.95029 22.524 2.29718 21.9292 1.79849C21.3345 1.2998 20.6137 0.974855 19.8461 0.85942C19.0786 0.743984 18.2941 0.842532 17.5789 1.14422C16.8638 1.4459 16.2457 1.93903 15.7928 2.56933C15.3398 3.19964 15.0696 3.94268 15.0117 4.71669C14.9538 5.4907 15.1106 6.26568 15.4648 6.95633C15.8189 7.64698 16.3568 8.22654 17.0191 8.63122C17.6814 9.0359 18.4426 9.25001 19.2188 9.25ZM26.25 7.84375C26.25 8.3073 26.1125 8.76044 25.855 9.14587C25.5975 9.5313 25.2314 9.8317 24.8032 10.0091C24.3749 10.1865 23.9037 10.2329 23.449 10.1425C22.9944 10.052 22.5767 9.82881 22.249 9.50103C21.9212 9.17325 21.698 8.75564 21.6075 8.30099C21.5171 7.84635 21.5635 7.3751 21.7409 6.94684C21.9183 6.51857 22.2187 6.15253 22.6041 5.89499C22.9896 5.63746 23.4427 5.5 23.9062 5.5C24.5279 5.5 25.124 5.74693 25.5635 6.18647C26.0031 6.62601 26.25 7.22215 26.25 7.84375ZM19.2188 2.6875C19.73 2.68776 20.2272 2.8552 20.6345 3.16431C21.0418 3.47342 21.3368 3.90723 21.4746 4.39961C20.9945 4.73746 20.5901 5.1718 20.2874 5.67486C19.9847 6.17792 19.7904 6.73862 19.7168 7.3211C19.5531 7.35644 19.3862 7.37451 19.2188 7.375C18.5971 7.375 18.001 7.12807 17.5615 6.68853C17.1219 6.24899 16.875 5.65285 16.875 5.03125C16.875 4.40965 17.1219 3.81351 17.5615 3.37397C18.001 2.93443 18.5971 2.6875 19.2188 2.6875Z" fill="white"/>
</svg>
