<svg width="28" height="20" viewBox="0 0 28 20" fill="none" xmlns="http://www.w3.org/2000/svg">
<path d="M25.1926 0.625H2.80977C2.29704 0.625 1.80528 0.828519 1.44251 1.19085C1.07974 1.55318 0.875621 2.0447 0.875 2.55742V17.4402C0.875 17.953 1.07852 18.4447 1.44085 18.8075C1.80318 19.1703 2.2947 19.3744 2.80742 19.375H25.1902C25.703 19.375 26.1947 19.1715 26.5575 18.8091C26.9203 18.4468 27.1244 17.9553 27.125 17.4426V2.55977C27.125 2.04704 26.9215 1.55528 26.5591 1.19251C26.1968 0.829736 25.7053 0.625621 25.1926 0.625ZM25.25 17.4426C25.25 17.4501 25.2485 17.4576 25.2456 17.4646C25.2427 17.4715 25.2385 17.4778 25.2332 17.4832C25.2278 17.4885 25.2215 17.4927 25.2146 17.4956C25.2076 17.4985 25.2001 17.5 25.1926 17.5H2.80977C2.80222 17.5 2.79476 17.4985 2.78779 17.4956C2.78082 17.4927 2.77449 17.4885 2.76916 17.4832C2.76383 17.4778 2.7596 17.4715 2.75671 17.4646C2.75383 17.4576 2.75234 17.4501 2.75234 17.4426V2.55977C2.75234 2.54454 2.75839 2.52993 2.76916 2.51916C2.77993 2.50839 2.79454 2.50234 2.80977 2.50234H25.1926C25.2078 2.50234 25.2224 2.50839 25.2332 2.51916C25.2439 2.52993 25.25 2.54454 25.25 2.55977V17.4426ZM23.375 10C23.375 10.2486 23.2762 10.4871 23.1004 10.6629C22.9246 10.8387 22.6861 10.9375 22.4375 10.9375H5.5625C5.31386 10.9375 5.0754 10.8387 4.89959 10.6629C4.72377 10.4871 4.625 10.2486 4.625 10C4.625 9.75136 4.72377 9.5129 4.89959 9.33709C5.0754 9.16127 5.31386 9.0625 5.5625 9.0625H22.4375C22.6861 9.0625 22.9246 9.16127 23.1004 9.33709C23.2762 9.5129 23.375 9.75136 23.375 10ZM23.375 6.25C23.375 6.49864 23.2762 6.7371 23.1004 6.91291C22.9246 7.08873 22.6861 7.1875 22.4375 7.1875H5.5625C5.31386 7.1875 5.0754 7.08873 4.89959 6.91291C4.72377 6.7371 4.625 6.49864 4.625 6.25C4.625 6.00136 4.72377 5.7629 4.89959 5.58709C5.0754 5.41127 5.31386 5.3125 5.5625 5.3125H22.4375C22.6861 5.3125 22.9246 5.41127 23.1004 5.58709C23.2762 5.7629 23.375 6.00136 23.375 6.25ZM7.4375 13.75C7.4375 13.9986 7.33873 14.2371 7.16291 14.4129C6.9871 14.5887 6.74864 14.6875 6.5 14.6875H5.5625C5.31386 14.6875 5.0754 14.5887 4.89959 14.4129C4.72377 14.2371 4.625 13.9986 4.625 13.75C4.625 13.5014 4.72377 13.2629 4.89959 13.0871C5.0754 12.9113 5.31386 12.8125 5.5625 12.8125H6.5C6.74864 12.8125 6.9871 12.9113 7.16291 13.0871C7.33873 13.2629 7.4375 13.5014 7.4375 13.75ZM18.6875 13.75C18.6875 13.9986 18.5887 14.2371 18.4129 14.4129C18.2371 14.5887 17.9986 14.6875 17.75 14.6875H10.25C10.0014 14.6875 9.7629 14.5887 9.58709 14.4129C9.41127 14.2371 9.3125 13.9986 9.3125 13.75C9.3125 13.5014 9.41127 13.2629 9.58709 13.0871C9.7629 12.9113 10.0014 12.8125 10.25 12.8125H17.75C17.9986 12.8125 18.2371 12.9113 18.4129 13.0871C18.5887 13.2629 18.6875 13.5014 18.6875 13.75ZM23.375 13.75C23.375 13.9986 23.2762 14.2371 23.1004 14.4129C22.9246 14.5887 22.6861 14.6875 22.4375 14.6875H21.5C21.2514 14.6875 21.0129 14.5887 20.8371 14.4129C20.6613 14.2371 20.5625 13.9986 20.5625 13.75C20.5625 13.5014 20.6613 13.2629 20.8371 13.0871C21.0129 12.9113 21.2514 12.8125 21.5 12.8125H22.4375C22.6861 12.8125 22.9246 12.9113 23.1004 13.0871C23.2762 13.2629 23.375 13.5014 23.375 13.75Z" fill="white"/>
</svg>
