<svg width="32" height="32" viewBox="0 0 32 32" fill="none" xmlns="http://www.w3.org/2000/svg">
<g id="ArrowDownRight">
<path id="Vector" d="M25.0006 11.0006V24.0006C25.0006 24.2658 24.8952 24.5201 24.7077 24.7077C24.5201 24.8952 24.2658 25.0006 24.0006 25.0006H11.0006C10.7353 25.0006 10.481 24.8952 10.2934 24.7077C10.1059 24.5201 10.0006 24.2658 10.0006 24.0006C10.0006 23.7353 10.1059 23.481 10.2934 23.2934C10.481 23.1059 10.7353 23.0006 11.0006 23.0006H21.5868L7.29306 8.70806C7.10542 8.52042 7 8.26592 7 8.00056C7 7.73519 7.10542 7.4807 7.29306 7.29306C7.4807 7.10542 7.73519 7 8.00056 7C8.26592 7 8.52042 7.10542 8.70806 7.29306L23.0006 21.5868V11.0006C23.0006 10.7353 23.1059 10.481 23.2934 10.2934C23.481 10.1059 23.7353 10.0006 24.0006 10.0006C24.2658 10.0006 24.5201 10.1059 24.7077 10.2934C24.8952 10.481 25.0006 10.7353 25.0006 11.0006Z" fill="black"/>
</g>
</svg>
