<svg width="32" height="32" viewBox="0 0 32 32" fill="none" xmlns="http://www.w3.org/2000/svg">
<path d="M22.7071 16.7076L12.7071 26.7076C12.6142 26.8005 12.5039 26.8742 12.3825 26.9245C12.2611 26.9747 12.131 27.0006 11.9996 27.0006C11.8682 27.0006 11.7381 26.9747 11.6167 26.9245C11.4953 26.8742 11.385 26.8005 11.2921 26.7076C11.1992 26.6147 11.1255 26.5044 11.0752 26.383C11.0249 26.2616 10.999 26.1315 10.999 26.0001C10.999 25.8687 11.0249 25.7386 11.0752 25.6172C11.1255 25.4958 11.1992 25.3855 11.2921 25.2926L20.5858 16.0001L11.2921 6.70757C11.1044 6.51993 10.999 6.26543 10.999 6.00007C10.999 5.7347 11.1044 5.48021 11.2921 5.29257C11.4797 5.10493 11.7342 4.99951 11.9996 4.99951C12.2649 4.99951 12.5194 5.10493 12.7071 5.29257L22.7071 15.2926C22.8001 15.3854 22.8738 15.4957 22.9241 15.6171C22.9745 15.7385 23.0004 15.8687 23.0004 16.0001C23.0004 16.1315 22.9745 16.2616 22.9241 16.383C22.8738 16.5044 22.8001 16.6147 22.7071 16.7076Z" fill="black"/>
</svg>
