<svg width="6" height="11" viewBox="0 0 6 11" fill="none" xmlns="http://www.w3.org/2000/svg">
<path d="M5.64391 5.83166L0.956413 10.5192C0.912862 10.5627 0.861158 10.5973 0.804255 10.6208C0.747352 10.6444 0.686364 10.6565 0.624772 10.6565C0.563181 10.6565 0.502193 10.6444 0.44529 10.6208C0.388387 10.5973 0.336683 10.5627 0.293132 10.5192C0.24958 10.4756 0.215033 10.4239 0.191463 10.367C0.167893 10.3101 0.155762 10.2491 0.155762 10.1875C0.155762 10.1259 0.167893 10.0649 0.191463 10.008C0.215033 9.95113 0.24958 9.89943 0.293132 9.85588L4.64958 5.50002L0.293132 1.14416C0.205175 1.0562 0.155762 0.936906 0.155762 0.812517C0.155762 0.688127 0.205175 0.568832 0.293132 0.480876C0.381088 0.392919 0.500383 0.343506 0.624772 0.343506C0.749162 0.343506 0.868457 0.392919 0.956413 0.480876L5.64391 5.16838C5.6875 5.21191 5.72207 5.26361 5.74566 5.32051C5.76925 5.37742 5.78139 5.43842 5.78139 5.50002C5.78139 5.56162 5.76925 5.62261 5.74566 5.67952C5.72207 5.73643 5.6875 5.78812 5.64391 5.83166Z" fill="white"/>
</svg>
