<svg width="24" height="24" viewBox="0 0 24 24" fill="none" xmlns="http://www.w3.org/2000/svg">
<path d="M17.2598 9.045C17.3413 9.12638 17.406 9.22302 17.4501 9.3294C17.4941 9.43578 17.5168 9.5498 17.5168 9.66496C17.5168 9.78011 17.4941 9.89414 17.4501 10.0005C17.406 10.1069 17.3413 10.2035 17.2598 10.2849L11.126 16.4187C11.0446 16.5002 10.948 16.5648 10.8416 16.6089C10.7352 16.653 10.6212 16.6757 10.5061 16.6757C10.3909 16.6757 10.2769 16.653 10.1705 16.6089C10.0641 16.5648 9.96749 16.5002 9.88611 16.4187L7.25733 13.79C7.09291 13.6255 7.00053 13.4025 7.00053 13.17C7.00053 12.9375 7.09291 12.7145 7.25733 12.55C7.42175 12.3856 7.64475 12.2933 7.87728 12.2933C8.10981 12.2933 8.33282 12.3856 8.49724 12.55L10.5061 14.56L16.0199 9.045C16.1013 8.96353 16.198 8.8989 16.3043 8.8548C16.4107 8.8107 16.5247 8.78801 16.6399 8.78801C16.755 8.78801 16.8691 8.8107 16.9755 8.8548C17.0818 8.8989 17.1785 8.96353 17.2598 9.045ZM23.65 12.2937C23.65 14.5467 22.9819 16.7492 21.7302 18.6225C20.4785 20.4958 18.6994 21.9558 16.6179 22.818C14.5364 23.6802 12.246 23.9058 10.0362 23.4663C7.82652 23.0267 5.79677 21.9418 4.20366 20.3487C2.61054 18.7556 1.52561 16.7258 1.08608 14.5161C0.646536 12.3064 0.872123 10.0159 1.73431 7.93444C2.5965 5.85294 4.05656 4.07384 5.92987 2.82214C7.80317 1.57044 10.0056 0.902344 12.2586 0.902344C15.2788 0.905533 18.1744 2.10672 20.31 4.24233C22.4456 6.37794 23.6468 9.27353 23.65 12.2937ZM21.8975 12.2937C21.8975 10.3874 21.3322 8.52377 20.273 6.93867C19.2139 5.35356 17.7085 4.11813 15.9472 3.38858C14.186 2.65904 12.2479 2.46816 10.3781 2.84007C8.50838 3.21199 6.7909 4.13001 5.44288 5.47803C4.09486 6.82605 3.17684 8.54353 2.80492 10.4133C2.43301 12.283 2.62389 14.2211 3.35343 15.9824C4.08297 17.7437 5.31841 19.249 6.90352 20.3082C8.48862 21.3673 10.3522 21.9326 12.2586 21.9326C14.8141 21.9297 17.2641 20.9133 19.0711 19.1063C20.8781 17.2992 21.8946 14.8492 21.8975 12.2937Z" fill="white"/>
</svg>
