<svg width="34" height="34" viewBox="0 0 34 34" fill="none" xmlns="http://www.w3.org/2000/svg">
<path d="M24.1422 12.3656C24.2584 12.4817 24.3506 12.6196 24.4135 12.7713C24.4764 12.9231 24.5088 13.0857 24.5088 13.25C24.5088 13.4143 24.4764 13.5769 24.4135 13.7287C24.3506 13.8804 24.2584 14.0183 24.1422 14.1344L15.3922 22.8844C15.2761 23.0006 15.1382 23.0928 14.9865 23.1557C14.8347 23.2186 14.6721 23.251 14.5078 23.251C14.3436 23.251 14.1809 23.2186 14.0291 23.1557C13.8774 23.0928 13.7395 23.0006 13.6234 22.8844L9.87344 19.1344C9.63889 18.8998 9.50712 18.5817 9.50712 18.25C9.50712 17.9183 9.63889 17.6002 9.87344 17.3656C10.108 17.1311 10.4261 16.9993 10.7578 16.9993C11.0895 16.9993 11.4076 17.1311 11.6422 17.3656L14.5078 20.2328L22.3734 12.3656C22.4895 12.2494 22.6274 12.1572 22.7791 12.0943C22.9309 12.0314 23.0935 11.999 23.2578 11.999C23.4221 11.999 23.5847 12.0314 23.7365 12.0943C23.8882 12.1572 24.0261 12.2494 24.1422 12.3656ZM33.2578 17C33.2578 20.2139 32.3048 23.3557 30.5192 26.028C28.7336 28.7003 26.1957 30.7831 23.2264 32.013C20.2571 33.243 16.9898 33.5648 13.8376 32.9378C10.6854 32.3107 7.78994 30.7631 5.51733 28.4905C3.24473 26.2179 1.69707 23.3224 1.07006 20.1702C0.443049 17.018 0.764853 13.7507 1.99478 10.7814C3.2247 7.81209 5.3075 5.27419 7.9798 3.48862C10.6521 1.70305 13.7939 0.75 17.0078 0.75C21.3162 0.75455 25.4468 2.46806 28.4933 5.51454C31.5398 8.56102 33.2533 12.6916 33.2578 17ZM30.7578 17C30.7578 14.2805 29.9514 11.6221 28.4405 9.36091C26.9297 7.09973 24.7822 5.33736 22.2697 4.29666C19.7572 3.25595 16.9926 2.98366 14.3253 3.5142C11.6581 4.04475 9.20807 5.35431 7.2851 7.27728C5.36213 9.20025 4.05257 11.6503 3.52202 14.3175C2.99148 16.9847 3.26377 19.7494 4.30448 22.2619C5.34518 24.7744 7.10755 26.9218 9.36873 28.4327C11.6299 29.9436 14.2883 30.75 17.0078 30.75C20.6533 30.7459 24.1482 29.2959 26.726 26.7182C29.3037 24.1404 30.7537 20.6455 30.7578 17Z" fill="white"/>
</svg>
