<svg width="13" height="16" viewBox="0 0 13 16" fill="none" xmlns="http://www.w3.org/2000/svg">
<path d="M12.7553 3.90426L9.97927 1.12822C9.92767 1.07668 9.86642 1.03581 9.79902 1.00794C9.73162 0.980076 9.65939 0.965763 9.58646 0.96582H4.03437C3.73987 0.96582 3.45744 1.08281 3.24919 1.29105C3.04095 1.4993 2.92396 1.78174 2.92396 2.07624V3.18665H1.81354C1.51904 3.18665 1.2366 3.30364 1.02836 3.51189C0.820115 3.72013 0.703125 4.00257 0.703125 4.29707V14.2908C0.703125 14.5853 0.820115 14.8678 1.02836 15.076C1.2366 15.2842 1.51904 15.4012 1.81354 15.4012H9.58646C9.88096 15.4012 10.1634 15.2842 10.3716 15.076C10.5799 14.8678 10.6969 14.5853 10.6969 14.2908V13.1804H11.8073C12.1018 13.1804 12.3842 13.0634 12.5925 12.8552C12.8007 12.6469 12.9177 12.3645 12.9177 12.07V4.29707C12.9178 4.22414 12.9035 4.15191 12.8756 4.08451C12.8477 4.01711 12.8069 3.95586 12.7553 3.90426ZM9.58646 14.2908H1.81354V4.29707H7.13591L9.58646 6.74762V12.6141C9.58646 12.6183 9.58646 12.6217 9.58646 12.6252C9.58646 12.6287 9.58646 12.6321 9.58646 12.6363V14.2908ZM11.8073 12.07H10.6969V6.5179C10.6969 6.44497 10.6826 6.37274 10.6548 6.30534C10.6269 6.23794 10.586 6.17669 10.5345 6.12509L7.75844 3.34905C7.70684 3.29751 7.64559 3.25664 7.57819 3.22877C7.51079 3.20091 7.43856 3.1866 7.36562 3.18665H4.03437V2.07624H9.35674L11.8073 4.52679V12.07ZM7.92083 9.84915C7.92083 9.9964 7.86234 10.1376 7.75822 10.2417C7.6541 10.3459 7.51288 10.4044 7.36562 10.4044H4.03437C3.88712 10.4044 3.74591 10.3459 3.64178 10.2417C3.53766 10.1376 3.47917 9.9964 3.47917 9.84915C3.47917 9.7019 3.53766 9.56068 3.64178 9.45656C3.74591 9.35244 3.88712 9.29395 4.03437 9.29395H7.36562C7.51288 9.29395 7.6541 9.35244 7.75822 9.45656C7.86234 9.56068 7.92083 9.7019 7.92083 9.84915ZM7.92083 12.07C7.92083 12.2172 7.86234 12.3585 7.75822 12.4626C7.6541 12.5667 7.51288 12.6252 7.36562 12.6252H4.03437C3.88712 12.6252 3.74591 12.5667 3.64178 12.4626C3.53766 12.3585 3.47917 12.2172 3.47917 12.07C3.47917 11.9227 3.53766 11.7815 3.64178 11.6774C3.74591 11.5733 3.88712 11.5148 4.03437 11.5148H7.36562C7.51288 11.5148 7.6541 11.5733 7.75822 11.6774C7.86234 11.7815 7.92083 11.9227 7.92083 12.07Z" fill="black"/>
</svg>
