<svg width="22" height="25" viewBox="0 0 22 25" fill="none" xmlns="http://www.w3.org/2000/svg">
<path d="M6.875 2.75337C6.51033 2.75337 6.16059 2.89824 5.90273 3.1561C5.64487 3.41396 5.5 3.7637 5.5 4.12837C5.5 4.49304 5.64487 4.84278 5.90273 5.10064C6.16059 5.3585 6.51033 5.50337 6.875 5.50337C7.23967 5.50337 7.58941 5.3585 7.84727 5.10064C8.10513 4.84278 8.25 4.49304 8.25 4.12837C8.25 3.7637 8.10513 3.41396 7.84727 3.1561C7.58941 2.89824 7.23967 2.75337 6.875 2.75337ZM2.98375 2.75337C3.26783 1.94826 3.79464 1.25109 4.49157 0.757955C5.18851 0.264819 6.02124 0 6.875 0C7.72876 0 8.56149 0.264819 9.25843 0.757955C9.95536 1.25109 10.4822 1.94826 10.7662 2.75337H20.625C20.9897 2.75337 21.3394 2.89824 21.5973 3.1561C21.8551 3.41396 22 3.7637 22 4.12837C22 4.49304 21.8551 4.84278 21.5973 5.10064C21.3394 5.3585 20.9897 5.50337 20.625 5.50337H10.7662C10.4822 6.30848 9.95536 7.00565 9.25843 7.49878C8.56149 7.99192 7.72876 8.25674 6.875 8.25674C6.02124 8.25674 5.18851 7.99192 4.49157 7.49878C3.79464 7.00565 3.26783 6.30848 2.98375 5.50337H1.375C1.01033 5.50337 0.660591 5.3585 0.402728 5.10064C0.144866 4.84278 0 4.49304 0 4.12837C0 3.7637 0.144866 3.41396 0.402728 3.1561C0.660591 2.89824 1.01033 2.75337 1.375 2.75337H2.98375ZM15.125 11.0034C14.7603 11.0034 14.4106 11.1482 14.1527 11.4061C13.8949 11.664 13.75 12.0137 13.75 12.3784C13.75 12.743 13.8949 13.0928 14.1527 13.3506C14.4106 13.6085 14.7603 13.7534 15.125 13.7534C15.4897 13.7534 15.8394 13.6085 16.0973 13.3506C16.3551 13.0928 16.5 12.743 16.5 12.3784C16.5 12.0137 16.3551 11.664 16.0973 11.4061C15.8394 11.1482 15.4897 11.0034 15.125 11.0034ZM11.2338 11.0034C11.5178 10.1983 12.0446 9.50109 12.7416 9.00795C13.4385 8.51482 14.2712 8.25 15.125 8.25C15.9788 8.25 16.8115 8.51482 17.5084 9.00795C18.2054 9.50109 18.7322 10.1983 19.0163 11.0034H20.625C20.9897 11.0034 21.3394 11.1482 21.5973 11.4061C21.8551 11.664 22 12.0137 22 12.3784C22 12.743 21.8551 13.0928 21.5973 13.3506C21.3394 13.6085 20.9897 13.7534 20.625 13.7534H19.0163C18.7322 14.5585 18.2054 15.2556 17.5084 15.7488C16.8115 16.2419 15.9788 16.5067 15.125 16.5067C14.2712 16.5067 13.4385 16.2419 12.7416 15.7488C12.0446 15.2556 11.5178 14.5585 11.2338 13.7534H1.375C1.01033 13.7534 0.660591 13.6085 0.402728 13.3506C0.144866 13.0928 0 12.743 0 12.3784C0 12.0137 0.144866 11.664 0.402728 11.4061C0.660591 11.1482 1.01033 11.0034 1.375 11.0034H11.2338ZM6.875 19.2534C6.51033 19.2534 6.16059 19.3982 5.90273 19.6561C5.64487 19.914 5.5 20.2637 5.5 20.6284C5.5 20.993 5.64487 21.3428 5.90273 21.6006C6.16059 21.8585 6.51033 22.0034 6.875 22.0034C7.23967 22.0034 7.58941 21.8585 7.84727 21.6006C8.10513 21.3428 8.25 20.993 8.25 20.6284C8.25 20.2637 8.10513 19.914 7.84727 19.6561C7.58941 19.3982 7.23967 19.2534 6.875 19.2534ZM2.98375 19.2534C3.26783 18.4483 3.79464 17.7511 4.49157 17.258C5.18851 16.7648 6.02124 16.5 6.875 16.5C7.72876 16.5 8.56149 16.7648 9.25843 17.258C9.95536 17.7511 10.4822 18.4483 10.7662 19.2534H20.625C20.9897 19.2534 21.3394 19.3982 21.5973 19.6561C21.8551 19.914 22 20.2637 22 20.6284C22 20.993 21.8551 21.3428 21.5973 21.6006C21.3394 21.8585 20.9897 22.0034 20.625 22.0034H10.7662C10.4822 22.8085 9.95536 23.5056 9.25843 23.9988C8.56149 24.4919 7.72876 24.7567 6.875 24.7567C6.02124 24.7567 5.18851 24.4919 4.49157 23.9988C3.79464 23.5056 3.26783 22.8085 2.98375 22.0034H1.375C1.01033 22.0034 0.660591 21.8585 0.402728 21.6006C0.144866 21.3428 0 20.993 0 20.6284C0 20.2637 0.144866 19.914 0.402728 19.6561C0.660591 19.3982 1.01033 19.2534 1.375 19.2534H2.98375Z" fill="#0D0D0D"/>
</svg>
