<svg width="23" height="23" viewBox="0 0 23 23" fill="none" xmlns="http://www.w3.org/2000/svg">
<path d="M17.9688 11.5C17.9688 11.6906 17.893 11.8734 17.7582 12.0082C17.6234 12.143 17.4406 12.2188 17.25 12.2188H5.75C5.55938 12.2188 5.37656 12.143 5.24177 12.0082C5.10698 11.8734 5.03125 11.6906 5.03125 11.5C5.03125 11.3094 5.10698 11.1266 5.24177 10.9918C5.37656 10.857 5.55938 10.7812 5.75 10.7812H17.25C17.4406 10.7812 17.6234 10.857 17.7582 10.9918C17.893 11.1266 17.9688 11.3094 17.9688 11.5ZM20.8438 6.46875H2.15625C1.96563 6.46875 1.78281 6.54448 1.64802 6.67927C1.51323 6.81406 1.4375 6.99688 1.4375 7.1875C1.4375 7.37812 1.51323 7.56094 1.64802 7.69573C1.78281 7.83052 1.96563 7.90625 2.15625 7.90625H20.8438C21.0344 7.90625 21.2172 7.83052 21.352 7.69573C21.4868 7.56094 21.5625 7.37812 21.5625 7.1875C21.5625 6.99688 21.4868 6.81406 21.352 6.67927C21.2172 6.54448 21.0344 6.46875 20.8438 6.46875ZM13.6562 15.0938H9.34375C9.15313 15.0938 8.97031 15.1695 8.83552 15.3043C8.70073 15.4391 8.625 15.6219 8.625 15.8125C8.625 16.0031 8.70073 16.1859 8.83552 16.3207C8.97031 16.4555 9.15313 16.5312 9.34375 16.5312H13.6562C13.8469 16.5312 14.0297 16.4555 14.1645 16.3207C14.2993 16.1859 14.375 16.0031 14.375 15.8125C14.375 15.6219 14.2993 15.4391 14.1645 15.3043C14.0297 15.1695 13.8469 15.0938 13.6562 15.0938Z" fill="black"/>
</svg>
