<svg width="32" height="32" viewBox="0 0 32 32" fill="none" xmlns="http://www.w3.org/2000/svg">
<path d="M28.7078 27.2923L22.449 21.0348C24.2631 18.8569 25.1676 16.0635 24.9746 13.2357C24.7815 10.4079 23.5057 7.76337 21.4125 5.85226C19.3193 3.94116 16.5698 2.91061 13.7362 2.97501C10.9025 3.03941 8.20274 4.1938 6.19851 6.19802C4.19429 8.20225 3.0399 10.902 2.9755 13.7357C2.9111 16.5694 3.94164 19.3188 5.85275 21.412C7.76385 23.5052 10.4084 24.781 13.2362 24.9741C16.064 25.1672 18.8574 24.2626 21.0353 22.4485L27.2928 28.7073C27.3857 28.8002 27.496 28.8739 27.6174 28.9242C27.7388 28.9745 27.8689 29.0004 28.0003 29.0004C28.1317 29.0004 28.2618 28.9745 28.3832 28.9242C28.5046 28.8739 28.6149 28.8002 28.7078 28.7073C28.8007 28.6144 28.8744 28.5041 28.9247 28.3827C28.975 28.2613 29.0008 28.1312 29.0008 27.9998C29.0008 27.8684 28.975 27.7383 28.9247 27.6169C28.8744 27.4955 28.8007 27.3852 28.7078 27.2923ZM5.00029 13.9998C5.00029 12.2198 5.52813 10.4797 6.51706 8.99966C7.50599 7.51962 8.9116 6.36607 10.5561 5.68488C12.2007 5.00369 14.0103 4.82546 15.7561 5.17273C17.5019 5.52 19.1056 6.37716 20.3642 7.63584C21.6229 8.89451 22.4801 10.4982 22.8274 12.244C23.1746 13.9898 22.9964 15.7994 22.3152 17.4439C21.634 19.0885 20.4805 20.4941 19.0004 21.483C17.5204 22.472 15.7803 22.9998 14.0003 22.9998C11.6141 22.9972 9.3265 22.0481 7.63925 20.3608C5.95199 18.6736 5.00293 16.3859 5.00029 13.9998Z" fill="black"/>
</svg>
