<svg width="32" height="32" viewBox="0 0 32 32" fill="none" xmlns="http://www.w3.org/2000/svg">
<path d="M13 5H7C6.46957 5 5.96086 5.21071 5.58579 5.58579C5.21071 5.96086 5 6.46957 5 7V13C5 13.5304 5.21071 14.0391 5.58579 14.4142C5.96086 14.7893 6.46957 15 7 15H13C13.5304 15 14.0391 14.7893 14.4142 14.4142C14.7893 14.0391 15 13.5304 15 13V7C15 6.46957 14.7893 5.96086 14.4142 5.58579C14.0391 5.21071 13.5304 5 13 5ZM13 13H7V7H13V13ZM13 17H7C6.46957 17 5.96086 17.2107 5.58579 17.5858C5.21071 17.9609 5 18.4696 5 19V25C5 25.5304 5.21071 26.0391 5.58579 26.4142C5.96086 26.7893 6.46957 27 7 27H13C13.5304 27 14.0391 26.7893 14.4142 26.4142C14.7893 26.0391 15 25.5304 15 25V19C15 18.4696 14.7893 17.9609 14.4142 17.5858C14.0391 17.2107 13.5304 17 13 17ZM13 25H7V19H13V25ZM25 17H19C18.4696 17 17.9609 17.2107 17.5858 17.5858C17.2107 17.9609 17 18.4696 17 19V25C17 25.5304 17.2107 26.0391 17.5858 26.4142C17.9609 26.7893 18.4696 27 19 27H25C25.5304 27 26.0391 26.7893 26.4142 26.4142C26.7893 26.0391 27 25.5304 27 25V19C27 18.4696 26.7893 17.9609 26.4142 17.5858C26.0391 17.2107 25.5304 17 25 17ZM25 25H19V19H25V25Z" fill="white"/>
<g clip-path="url(#clip0_1_7027)">
<path d="M24 10C24.5304 10 25.0391 9.78929 25.4142 9.41421C25.7893 9.03914 26 8.53043 26 8C26 7.46957 25.7893 6.96086 25.4142 6.58579C25.0391 6.21071 24.5304 6 24 6C23.4696 6 22.9609 6.21071 22.5858 6.58579C22.2107 6.96086 22 7.46957 22 8C22 8.53043 22.2107 9.03914 22.5858 9.41421C22.9609 9.78929 23.4696 10 24 10Z" stroke="white" stroke-miterlimit="10" stroke-linecap="round" stroke-linejoin="round"/>
<path d="M17.333 8.58679V7.41345C17.333 6.72012 17.8997 6.14679 18.5997 6.14679C19.8063 6.14679 20.2997 5.29345 19.693 4.24679C19.3463 3.64679 19.553 2.86679 20.1597 2.52012L21.313 1.86012C21.8397 1.54679 22.5197 1.73345 22.833 2.26012L22.9063 2.38679C23.5063 3.43345 24.493 3.43345 25.0997 2.38679L25.173 2.26012C25.4863 1.73345 26.1663 1.54679 26.693 1.86012L27.8463 2.52012C28.453 2.86679 28.6597 3.64679 28.313 4.24679C27.7063 5.29345 28.1997 6.14679 29.4063 6.14679C30.0997 6.14679 30.673 6.71345 30.673 7.41345V8.58679C30.673 9.28012 30.1063 9.85345 29.4063 9.85345C28.1997 9.85345 27.7063 10.7068 28.313 11.7535C28.6597 12.3601 28.453 13.1335 27.8463 13.4801L26.693 14.1401C26.1663 14.4535 25.4863 14.2668 25.173 13.7401L25.0997 13.6135C24.4997 12.5668 23.513 12.5668 22.9063 13.6135L22.833 13.7401C22.5197 14.2668 21.8397 14.4535 21.313 14.1401L20.1597 13.4801C19.8691 13.3128 19.6567 13.037 19.5692 12.7133C19.4817 12.3896 19.5263 12.0444 19.693 11.7535C20.2997 10.7068 19.8063 9.85345 18.5997 9.85345C17.8997 9.85345 17.333 9.28012 17.333 8.58679Z" stroke="white" stroke-width="1.5" stroke-miterlimit="10" stroke-linecap="round" stroke-linejoin="round"/>
</g>
<defs>
<clipPath id="clip0_1_7027">
<rect width="16" height="16" fill="white" transform="translate(16)"/>
</clipPath>
</defs>
</svg>
