<svg width="30" height="23" viewBox="0 0 30 23" fill="none" xmlns="http://www.w3.org/2000/svg">
<path d="M28.6874 13.1576C28.5889 13.2379 28.4768 13.2963 28.3575 13.3295C28.2383 13.3627 28.1142 13.3701 27.9923 13.3512C27.8704 13.3323 27.7532 13.2874 27.6472 13.2192C27.5413 13.1511 27.4487 13.0609 27.3749 12.9538C26.8098 12.1282 26.0743 11.4584 25.2276 10.9982C24.3808 10.538 23.4465 10.3004 22.4999 10.3044C22.3155 10.3043 22.1353 10.2452 21.9816 10.1344C21.828 10.0237 21.7079 9.8661 21.6362 9.68148C21.5875 9.5561 21.5625 9.42141 21.5625 9.28533C21.5625 9.14926 21.5875 9.01456 21.6362 8.88919C21.7079 8.70456 21.828 8.547 21.9816 8.43621C22.1353 8.32543 22.3155 8.26633 22.4999 8.26631C23.0259 8.26626 23.5414 8.10586 23.9877 7.80334C24.4341 7.50082 24.7934 7.0683 25.025 6.55491C25.2565 6.04152 25.351 5.46784 25.2976 4.89903C25.2442 4.33022 25.0452 3.78908 24.723 3.33708C24.4009 2.88507 23.9686 2.54032 23.4752 2.34199C22.9819 2.14366 22.4472 2.09969 21.932 2.21508C21.4168 2.33047 20.9417 2.6006 20.5607 2.99477C20.1796 3.38894 19.9079 3.89137 19.7764 4.44498C19.7457 4.57462 19.6917 4.69639 19.6176 4.80336C19.5435 4.91033 19.4508 5.00039 19.3447 5.0684C19.2386 5.13641 19.1212 5.18104 18.9992 5.19974C18.8773 5.21845 18.7531 5.21085 18.6339 5.1774C18.5146 5.14394 18.4025 5.08528 18.3041 5.00476C18.2057 4.92425 18.1229 4.82345 18.0603 4.70812C17.9977 4.5928 17.9567 4.46521 17.9395 4.33263C17.9223 4.20006 17.9292 4.0651 17.96 3.93547C18.1426 3.16778 18.4874 2.45699 18.9671 1.85966C19.4468 1.26232 20.0482 0.794934 20.7234 0.494676C21.3985 0.194418 22.1288 0.0695807 22.8562 0.130096C23.5835 0.190611 24.2878 0.434809 24.9131 0.84326C25.5383 1.25171 26.0672 1.81314 26.4577 2.48287C26.8482 3.15261 27.0895 3.91217 27.1624 4.7011C27.2354 5.49004 27.1379 6.28659 26.8777 7.02737C26.6176 7.76814 26.2019 8.4327 25.6639 8.96816C26.9387 9.56811 28.0469 10.5201 28.8784 11.7297C28.9522 11.837 29.0059 11.9592 29.0363 12.0891C29.0667 12.219 29.0732 12.3541 29.0554 12.4867C29.0377 12.6194 28.996 12.7469 28.9329 12.862C28.8697 12.9771 28.7863 13.0776 28.6874 13.1576ZM22.3733 21.0041C22.4411 21.1201 22.4867 21.2498 22.5072 21.3854C22.5277 21.521 22.5228 21.6597 22.4927 21.7932C22.4626 21.9267 22.408 22.0522 22.3322 22.1621C22.2563 22.2721 22.1608 22.3642 22.0513 22.433C21.9418 22.5018 21.8207 22.5458 21.6952 22.5623C21.5697 22.5789 21.4424 22.5677 21.3209 22.5294C21.1995 22.4911 21.0864 22.4265 20.9886 22.3395C20.8907 22.2525 20.81 22.1449 20.7514 22.0231C20.1609 20.9362 19.3198 20.0353 18.3111 19.4096C17.3025 18.7838 16.1612 18.4547 14.9999 18.4547C13.8385 18.4547 12.6972 18.7838 11.6886 19.4096C10.68 20.0353 9.83888 20.9362 9.2483 22.0231C9.1897 22.1449 9.10903 22.2525 9.01116 22.3395C8.91329 22.4265 8.80024 22.4911 8.67881 22.5294C8.55738 22.5677 8.43007 22.5789 8.30455 22.5623C8.17904 22.5458 8.0579 22.5018 7.94843 22.433C7.83897 22.3642 7.74343 22.2721 7.66757 22.1621C7.59171 22.0522 7.5371 21.9267 7.50702 21.7932C7.47694 21.6597 7.47201 21.521 7.49253 21.3854C7.51305 21.2498 7.5586 21.1201 7.62643 21.0041C8.53533 19.3066 9.92119 17.9708 11.5803 17.1929C10.6467 16.416 9.9606 15.3406 9.61838 14.1178C9.27616 12.8951 9.29506 11.5865 9.67242 10.3761C10.0498 9.16562 10.7666 8.11413 11.7222 7.36941C12.6778 6.62469 13.824 6.22418 14.9999 6.22418C16.1757 6.22418 17.3219 6.62469 18.2775 7.36941C19.2331 8.11413 19.9499 9.16562 20.3273 10.3761C20.7047 11.5865 20.7236 12.8951 20.3814 14.1178C20.0391 15.3406 19.353 16.416 18.4194 17.1929C20.0785 17.9708 21.4644 19.3066 22.3733 21.0041ZM14.9999 16.4185C15.7415 16.4185 16.4666 16.1794 17.0833 15.7315C17.6999 15.2837 18.1806 14.6471 18.4644 13.9022C18.7482 13.1574 18.8225 12.3379 18.6778 11.5472C18.5331 10.7565 18.176 10.0302 17.6515 9.46017C17.1271 8.89012 16.4589 8.50191 15.7315 8.34463C15.004 8.18735 14.25 8.26807 13.5648 8.57658C12.8796 8.88509 12.2939 9.40754 11.8819 10.0778C11.4698 10.7482 11.2499 11.5362 11.2499 12.3424C11.2499 13.4234 11.645 14.4602 12.3482 15.2246C13.0515 15.989 14.0053 16.4185 14.9999 16.4185ZM8.43737 9.28533C8.43737 9.01507 8.33859 8.75588 8.16278 8.56477C7.98696 8.37367 7.74851 8.26631 7.49987 8.26631C6.97385 8.26626 6.45838 8.10586 6.01202 7.80334C5.56566 7.50082 5.20629 7.0683 4.97475 6.55491C4.7432 6.04152 4.64875 5.46784 4.70213 4.89903C4.75551 4.33022 4.95457 3.78908 5.27671 3.33708C5.59885 2.88507 6.03115 2.54032 6.52451 2.34199C7.01788 2.14366 7.55252 2.09969 8.06772 2.21508C8.58292 2.33047 9.05802 2.6006 9.43906 2.99477C9.8201 3.38894 10.0918 3.89137 10.2233 4.44498C10.2855 4.70679 10.4408 4.93105 10.655 5.0684C10.8693 5.20576 11.125 5.24496 11.3659 5.1774C11.6068 5.10983 11.8131 4.94103 11.9394 4.70812C12.0658 4.47521 12.1019 4.19728 12.0397 3.93547C11.8572 3.16778 11.5123 2.45699 11.0326 1.85966C10.5529 1.26232 9.95153 0.794934 9.27638 0.494676C8.60122 0.194418 7.87092 0.0695807 7.14357 0.130096C6.41622 0.190611 5.7119 0.434809 5.08666 0.84326C4.46141 1.25171 3.9325 1.81314 3.542 2.48287C3.1515 3.15261 2.9102 3.91217 2.83729 4.7011C2.76438 5.49004 2.86188 6.28659 3.12203 7.02737C3.38218 7.76814 3.79779 8.4327 4.3358 8.96816C3.06231 9.56867 1.95539 10.5207 1.12487 11.7297C0.975528 11.9459 0.911322 12.2178 0.946375 12.4854C0.981428 12.7531 1.11287 12.9947 1.31178 13.157C1.51069 13.3193 1.76078 13.3891 2.00704 13.351C2.25329 13.3129 2.47553 13.17 2.62487 12.9538C3.18993 12.1282 3.92543 11.4584 4.77216 10.9982C5.61889 10.538 6.5532 10.3004 7.49987 10.3044C7.74851 10.3044 7.98696 10.197 8.16278 10.0059C8.33859 9.81478 8.43737 9.55559 8.43737 9.28533Z" fill="white"/>
</svg>
