<svg width="26" height="23" viewBox="0 0 26 23" fill="none" xmlns="http://www.w3.org/2000/svg">
<path d="M23.3125 0.6875H2.6875C2.19022 0.6875 1.71331 0.885044 1.36167 1.23667C1.01004 1.58831 0.8125 2.06522 0.8125 2.5625V21.3125C0.812585 21.4723 0.853509 21.6294 0.931386 21.7689C1.00926 21.9084 1.12151 22.0258 1.25747 22.1097C1.39343 22.1936 1.54858 22.2414 1.70821 22.2486C1.86784 22.2557 2.02664 22.2219 2.16953 22.1504L5.5 20.4852L8.83047 22.1504C8.96072 22.2156 9.10436 22.2495 9.25 22.2495C9.39564 22.2495 9.53928 22.2156 9.66953 22.1504L13 20.4852L16.3305 22.1504C16.4607 22.2156 16.6044 22.2495 16.75 22.2495C16.8956 22.2495 17.0393 22.2156 17.1695 22.1504L20.5 20.4852L23.8305 22.1504C23.9734 22.2219 24.1322 22.2557 24.2918 22.2486C24.4514 22.2414 24.6066 22.1936 24.7425 22.1097C24.8785 22.0258 24.9907 21.9084 25.0686 21.7689C25.1465 21.6294 25.1874 21.4723 25.1875 21.3125V2.5625C25.1875 2.06522 24.99 1.58831 24.6383 1.23667C24.2867 0.885044 23.8098 0.6875 23.3125 0.6875ZM23.3125 19.7961L20.9195 18.5984C20.7893 18.5333 20.6456 18.4993 20.5 18.4993C20.3544 18.4993 20.2107 18.5333 20.0805 18.5984L16.75 20.2648L13.4195 18.5984C13.2893 18.5333 13.1456 18.4993 13 18.4993C12.8544 18.4993 12.7107 18.5333 12.5805 18.5984L9.25 20.2648L5.91953 18.5984C5.78928 18.5333 5.64564 18.4993 5.5 18.4993C5.35436 18.4993 5.21072 18.5333 5.08047 18.5984L2.6875 19.7961V2.5625H23.3125V19.7961ZM13.9375 9.125C13.9375 8.87636 14.0363 8.6379 14.2121 8.46209C14.3879 8.28627 14.6264 8.1875 14.875 8.1875H20.5C20.7486 8.1875 20.9871 8.28627 21.1629 8.46209C21.3387 8.6379 21.4375 8.87636 21.4375 9.125C21.4375 9.37364 21.3387 9.6121 21.1629 9.78791C20.9871 9.96373 20.7486 10.0625 20.5 10.0625H14.875C14.6264 10.0625 14.3879 9.96373 14.2121 9.78791C14.0363 9.6121 13.9375 9.37364 13.9375 9.125ZM13.9375 12.875C13.9375 12.6264 14.0363 12.3879 14.2121 12.2121C14.3879 12.0363 14.6264 11.9375 14.875 11.9375H20.5C20.7486 11.9375 20.9871 12.0363 21.1629 12.2121C21.3387 12.3879 21.4375 12.6264 21.4375 12.875C21.4375 13.1236 21.3387 13.3621 21.1629 13.5379C20.9871 13.7137 20.7486 13.8125 20.5 13.8125H14.875C14.6264 13.8125 14.3879 13.7137 14.2121 13.5379C14.0363 13.3621 13.9375 13.1236 13.9375 12.875ZM5.5 15.6875H11.125C11.3736 15.6875 11.6121 15.5887 11.7879 15.4129C11.9637 15.2371 12.0625 14.9986 12.0625 14.75V7.25C12.0625 7.00136 11.9637 6.7629 11.7879 6.58709C11.6121 6.41127 11.3736 6.3125 11.125 6.3125H5.5C5.25136 6.3125 5.0129 6.41127 4.83709 6.58709C4.66127 6.7629 4.5625 7.00136 4.5625 7.25V14.75C4.5625 14.9986 4.66127 15.2371 4.83709 15.4129C5.0129 15.5887 5.25136 15.6875 5.5 15.6875ZM6.4375 8.1875H10.1875V13.8125H6.4375V8.1875Z" fill="white"/>
</svg>
