<svg width="28" height="26" viewBox="0 0 28 26" fill="none" xmlns="http://www.w3.org/2000/svg">
<path d="M14.0001 7.37498C12.8876 7.37498 11.8 7.70488 10.875 8.32296C9.94999 8.94104 9.22902 9.81955 8.80328 10.8474C8.37754 11.8752 8.26614 13.0062 8.48318 14.0974C8.70023 15.1885 9.23595 16.1908 10.0226 16.9775C10.8093 17.7641 11.8116 18.2999 12.9027 18.5169C13.9939 18.7339 15.1249 18.6225 16.1527 18.1968C17.1805 17.7711 18.059 17.0501 18.6771 16.1251C19.2952 15.2 19.6251 14.1125 19.6251 13C19.6236 11.5086 19.0304 10.0788 17.9759 9.02422C16.9213 7.96966 15.4915 7.37653 14.0001 7.37498ZM14.0001 16.75C13.2584 16.75 12.5334 16.53 11.9167 16.118C11.3 15.7059 10.8194 15.1203 10.5356 14.435C10.2517 13.7498 10.1775 12.9958 10.3222 12.2684C10.4669 11.541 10.824 10.8728 11.3484 10.3483C11.8729 9.82388 12.5411 9.46673 13.2685 9.32203C13.9959 9.17734 14.7499 9.2516 15.4352 9.53543C16.1204 9.81926 16.7061 10.2999 17.1181 10.9166C17.5302 11.5333 17.7501 12.2583 17.7501 13C17.7501 13.9945 17.355 14.9484 16.6518 15.6516C15.9485 16.3549 14.9947 16.75 14.0001 16.75ZM26.8837 10.5637C26.8576 10.4316 26.8034 10.3068 26.7247 10.1976C26.646 10.0884 26.5448 9.99742 26.4278 9.93084L22.9321 7.93865L22.9181 3.99881C22.9176 3.86312 22.8878 3.72914 22.8305 3.60613C22.7733 3.48311 22.69 3.37399 22.5864 3.28631C21.3184 2.21369 19.8581 1.3917 18.2833 0.86404C18.1593 0.822063 18.0279 0.806529 17.8975 0.818437C17.7671 0.830346 17.6406 0.869433 17.5263 0.933181L14.0001 2.90427L10.4704 0.929665C10.356 0.865558 10.2294 0.826176 10.0988 0.814064C9.96817 0.801952 9.83648 0.817381 9.71221 0.859353C8.13856 1.39087 6.67997 2.21599 5.41377 3.29099C5.31038 3.37855 5.22719 3.48748 5.16993 3.61028C5.11268 3.73308 5.08273 3.86683 5.08213 4.00232L5.06455 7.94568L1.56885 9.93787C1.4519 10.0044 1.35065 10.0954 1.27199 10.2046C1.19333 10.3138 1.1391 10.4387 1.11299 10.5707C0.793065 12.1784 0.793065 13.8333 1.11299 15.441C1.1391 15.573 1.19333 15.6979 1.27199 15.8071C1.35065 15.9162 1.4519 16.0072 1.56885 16.0738L5.06455 18.066L5.07862 22.0058C5.07904 22.1415 5.10891 22.2755 5.16617 22.3985C5.22343 22.5215 5.30671 22.6306 5.41026 22.7183C6.67831 23.791 8.13856 24.6129 9.71338 25.1406C9.8374 25.1826 9.96883 25.1981 10.0992 25.1862C10.2296 25.1743 10.3561 25.1352 10.4704 25.0715L14.0001 23.0957L17.5298 25.0703C17.6695 25.1481 17.8269 25.1885 17.9868 25.1875C18.0892 25.1874 18.1909 25.1708 18.288 25.1383C19.8615 24.6075 21.32 23.7831 22.5864 22.709C22.6898 22.6214 22.773 22.5125 22.8303 22.3897C22.8875 22.2669 22.9175 22.1331 22.9181 21.9976L22.9356 18.0543L26.4314 16.0621C26.5483 15.9955 26.6495 15.9045 26.7282 15.7953C26.8069 15.6861 26.8611 15.5613 26.8872 15.4293C27.2054 13.8229 27.2042 12.1696 26.8837 10.5637ZM25.1259 14.6547L21.7778 16.559C21.6311 16.6424 21.5097 16.7638 21.4263 16.9105C21.3583 17.0277 21.2868 17.1519 21.2142 17.2691C21.1212 17.4169 21.0716 17.5879 21.0712 17.7625L21.0536 21.5418C20.1537 22.2485 19.1511 22.8136 18.0806 23.2176L14.7032 21.3355C14.563 21.2579 14.4053 21.2176 14.245 21.2183H14.2228C14.081 21.2183 13.938 21.2183 13.7962 21.2183C13.6285 21.2141 13.4627 21.2546 13.3157 21.3355L9.93604 23.2222C8.8632 22.8214 7.85786 22.259 6.95479 21.5547L6.9419 17.7812C6.94132 17.6063 6.8918 17.435 6.79893 17.2867C6.72627 17.1695 6.65479 17.0523 6.58799 16.9281C6.50517 16.7791 6.38372 16.6553 6.23643 16.5695L2.88487 14.6605C2.71143 13.5634 2.71143 12.4459 2.88487 11.3488L6.22705 9.44099C6.37375 9.35758 6.4952 9.23612 6.57862 9.08943C6.64658 8.97224 6.71807 8.84802 6.79073 8.73084C6.88373 8.58306 6.93327 8.41209 6.93369 8.23748L6.95127 4.45818C7.85119 3.75148 8.85376 3.18637 9.92432 2.7824L13.297 4.66443C13.4438 4.74579 13.6097 4.78626 13.7774 4.78162C13.9192 4.78162 14.0622 4.78162 14.204 4.78162C14.3717 4.78581 14.5375 4.74537 14.6845 4.66443L18.0642 2.77771C19.137 3.17858 20.1423 3.74092 21.0454 4.44529L21.0583 8.21873C21.0589 8.39368 21.1084 8.56498 21.2013 8.71326C21.2739 8.83045 21.3454 8.94763 21.4122 9.07185C21.495 9.22081 21.6165 9.34469 21.7638 9.43045L25.1153 11.3394C25.2911 12.4374 25.2931 13.5561 25.1212 14.6547H25.1259Z" fill="white"/>
</svg>
