<svg width="70" height="67" viewBox="0 0 70 67" fill="none" xmlns="http://www.w3.org/2000/svg">
<path d="M34.3086 13.1452H34.3082C30.4241 13.1452 26.6267 14.2774 23.3962 16.3995C20.1656 18.5217 17.6465 21.5387 16.1587 25.0698C14.6708 28.6011 14.2814 32.4872 15.04 36.2365C15.7986 39.9857 17.6709 43.4285 20.4189 46.1301C23.1669 48.8316 26.6672 50.6706 30.4768 51.4156C34.2863 52.1605 38.2351 51.7782 41.824 50.3168C45.413 48.8553 48.4818 46.3799 50.6413 43.2025C52.8009 40.0251 53.9541 36.2887 53.9541 32.4659L53.9541 32.4654C53.9485 27.3407 51.8753 22.429 48.1915 18.8074C44.5079 15.1862 39.515 13.1506 34.3086 13.1452ZM34.3082 48.0536C31.1692 48.0536 28.1013 47.1385 25.4925 45.4248C22.8837 43.7112 20.8515 41.2762 19.6518 38.4287C18.4521 35.5813 18.1383 32.4485 18.7498 29.4262C19.3613 26.4038 20.8709 23.6266 23.0889 21.4461C25.3069 19.2656 28.1337 17.7799 31.2122 17.1779C34.2906 16.5759 37.4815 16.8849 40.3809 18.0656C43.2803 19.2463 45.7573 21.2452 47.4995 23.8085C49.2417 26.3717 50.1711 29.3845 50.1711 32.4659C50.1662 36.5962 48.4951 40.5575 45.522 43.4803C42.5487 46.4033 38.516 48.0488 34.3082 48.0536ZM45.9999 33.7881C46.3554 33.4387 46.5564 32.9632 46.5564 32.4659C46.5564 31.9686 46.3554 31.4931 45.9999 31.1436C45.6446 30.7944 45.1643 30.5994 44.6649 30.5994H36.1996V22.2842C36.1996 21.7869 35.9986 21.3114 35.6432 20.962C35.2879 20.6127 34.8076 20.4178 34.3082 20.4178C33.8088 20.4178 33.3284 20.6127 32.9732 20.962C32.6177 21.3114 32.4167 21.7869 32.4167 22.2842V32.4659C32.4167 32.9632 32.6177 33.4387 32.9732 33.7881C33.3284 34.1374 33.8088 34.3323 34.3082 34.3323H44.6649C45.1643 34.3323 45.6446 34.1374 45.9999 33.7881Z" fill="#D6A330" stroke="#D6A330" stroke-width="0.823903"/>
<rect x="3.29561" y="3.29561" width="62.7002" height="59.6875" rx="11.7677" stroke="#D6A330" stroke-width="6.59122"/>
</svg>
