<svg width="30" height="27" viewBox="0 0 30 27" fill="none" xmlns="http://www.w3.org/2000/svg">
<path d="M28.2824 16.2855C27.9209 15.9724 27.5 15.7573 27.0527 15.657C26.6053 15.5567 26.1434 15.5739 25.7028 15.7072L20.6214 17.0225C20.7396 16.4603 20.7433 15.8752 20.6321 15.3112C20.5209 14.7472 20.2977 14.2188 19.9794 13.7657C19.661 13.3126 19.2556 12.9465 18.7937 12.6948C18.3317 12.4431 17.8251 12.3124 17.3119 12.3125H11.2322C10.7216 12.3111 10.2159 12.4235 9.74412 12.6434C9.27238 12.8633 8.84403 13.1862 8.4838 13.5936L5.73663 16.6875H2.25226C1.7369 16.6875 1.24264 16.918 0.878227 17.3282C0.51381 17.7384 0.309082 18.2948 0.309082 18.875L0.309082 24.3438C0.309082 24.9239 0.51381 25.4803 0.878227 25.8905C1.24264 26.3008 1.7369 26.5313 2.25226 26.5313H14.8829C14.9624 26.5313 15.0415 26.5203 15.1186 26.4984L22.8913 24.3109C22.9408 24.2977 22.9892 24.2794 23.0358 24.2563L27.7565 21.9949L27.81 21.9676C28.2637 21.7124 28.6522 21.3313 28.9389 20.8604C29.2256 20.3894 29.4011 19.844 29.4489 19.2756C29.4966 18.7072 29.415 18.1345 29.2118 17.6113C29.0086 17.0882 28.6904 16.632 28.2873 16.2855H28.2824ZM2.25226 18.875H5.16704V24.3438H2.25226V18.875ZM26.9586 19.9975L22.3435 22.2096L14.7615 24.3438H7.11022V18.2338L9.85861 15.1412C10.0384 14.9372 10.2524 14.7755 10.4882 14.6654C10.724 14.5553 10.9769 14.4991 11.2322 14.5H17.3119C17.6984 14.5 18.0691 14.6729 18.3425 14.9805C18.6158 15.2882 18.7693 15.7055 18.7693 16.1406C18.7693 16.5757 18.6158 16.993 18.3425 17.3007C18.0691 17.6084 17.6984 17.7813 17.3119 17.7813H13.9114C13.6537 17.7813 13.4065 17.8965 13.2243 18.1016C13.0421 18.3067 12.9398 18.5849 12.9398 18.875C12.9398 19.1651 13.0421 19.4433 13.2243 19.6484C13.4065 19.8535 13.6537 19.9688 13.9114 19.9688H17.7977C17.8708 19.9685 17.9437 19.9594 18.0151 19.9414L26.1522 17.8346L26.1898 17.8236C26.4382 17.746 26.7034 17.7745 26.9342 17.9037C27.165 18.0329 27.3453 18.2537 27.4402 18.5235C27.5352 18.7933 27.5382 19.0931 27.4486 19.3652C27.359 19.6373 27.1832 19.8625 26.955 19.9975H26.9586ZM20.2267 10.125C20.4667 10.1253 20.7064 10.1034 20.9432 10.0594C21.2096 10.9502 21.6971 11.7364 22.3478 12.3253C22.9986 12.9141 23.7856 13.2809 24.6156 13.3822C25.4457 13.4835 26.2842 13.3151 27.0319 12.897C27.7797 12.4788 28.4055 11.8284 28.8353 11.0226C29.2651 10.2167 29.4809 9.28924 29.4573 8.34971C29.4337 7.41017 29.1716 6.4979 28.702 5.72074C28.2324 4.94358 27.5749 4.33404 26.8074 3.96417C26.0398 3.59431 25.1942 3.4796 24.3705 3.6336C24.114 2.77534 23.6521 2.01338 23.0358 1.43157C22.4194 0.849765 21.6723 0.470664 20.8769 0.33599C20.0814 0.201315 19.2684 0.316287 18.5272 0.668254C17.7861 1.02022 17.1456 1.59554 16.6762 2.33089C16.2067 3.06624 15.9266 3.93313 15.8666 4.83614C15.8067 5.73915 15.9691 6.64329 16.3362 7.44905C16.7033 8.25481 17.2607 8.93096 17.9471 9.40309C18.6335 9.87521 19.4223 10.125 20.2267 10.125ZM27.5136 8.48438C27.5136 9.02519 27.3712 9.55385 27.1043 10.0035C26.8374 10.4532 26.458 10.8037 26.0142 11.0106C25.5703 11.2176 25.082 11.2717 24.6108 11.1662C24.1396 11.0607 23.7068 10.8003 23.3671 10.4179C23.0274 10.0355 22.7961 9.54824 22.7023 9.01783C22.6086 8.48741 22.6567 7.93762 22.8406 7.43798C23.0244 6.93834 23.3357 6.51128 23.7352 6.21083C24.1346 5.91037 24.6042 5.75 25.0847 5.75C25.7289 5.75 26.3467 6.03809 26.8022 6.55088C27.2577 7.06368 27.5136 7.75918 27.5136 8.48438ZM20.2267 2.46875C20.7566 2.46905 21.2719 2.6644 21.6939 3.02503C22.116 3.38566 22.4218 3.89177 22.5646 4.46621C22.067 4.86037 21.6479 5.3671 21.3342 5.95401C21.0205 6.54091 20.8191 7.19506 20.7429 7.87461C20.5732 7.91585 20.4002 7.93693 20.2267 7.9375C19.5825 7.9375 18.9647 7.64942 18.5091 7.13662C18.0536 6.62383 17.7977 5.92833 17.7977 5.20313C17.7977 4.47793 18.0536 3.78243 18.5091 3.26963C18.9647 2.75684 19.5825 2.46875 20.2267 2.46875Z" fill="white"/>
</svg>
