<svg width="28" height="28" viewBox="0 0 28 28" fill="none" xmlns="http://www.w3.org/2000/svg">
<path d="M27.4614 5.69278L26.8343 5.33723C26.9079 4.95466 26.9079 4.56195 26.8343 4.17938L27.4614 3.82383C27.7087 3.68361 27.8891 3.45263 27.9631 3.1817C28.037 2.91077 27.9983 2.62208 27.8556 2.37915C27.7129 2.13622 27.4777 1.95894 27.2019 1.88631C26.9261 1.81369 26.6322 1.85166 26.3849 1.99188L25.7565 2.34875C25.4558 2.09532 25.1101 1.8986 24.7366 1.7685V1.0574C24.7366 0.776961 24.6232 0.508007 24.4213 0.309706C24.2195 0.111404 23.9457 0 23.6602 0C23.3747 0 23.1009 0.111404 22.899 0.309706C22.6971 0.508007 22.5837 0.776961 22.5837 1.0574V1.7685C22.2103 1.8986 21.8645 2.09532 21.5638 2.34875L20.9354 1.99188C20.813 1.92245 20.6778 1.87739 20.5376 1.85928C20.3974 1.84117 20.255 1.85035 20.1184 1.88631C19.9819 1.92228 19.8539 1.98431 19.7417 2.06887C19.6295 2.15343 19.5354 2.25887 19.4648 2.37915C19.3941 2.49944 19.3482 2.63222 19.3298 2.76993C19.3113 2.90763 19.3207 3.04755 19.3573 3.1817C19.3939 3.31585 19.457 3.4416 19.5431 3.55178C19.6292 3.66195 19.7365 3.7544 19.859 3.82383L20.486 4.17938C20.4125 4.56195 20.4125 4.95466 20.486 5.33723L19.859 5.69278C19.6537 5.80912 19.4932 5.98877 19.4024 6.20387C19.3116 6.41897 19.2957 6.65749 19.357 6.8824C19.4184 7.10732 19.5536 7.30605 19.7417 7.44777C19.9297 7.58948 20.1602 7.66625 20.3972 7.66616C20.5862 7.66673 20.772 7.61792 20.9354 7.52473L21.5638 7.16786C21.8645 7.4213 22.2103 7.61801 22.5837 7.74811V8.45921C22.5837 8.73965 22.6971 9.0086 22.899 9.2069C23.1009 9.40521 23.3747 9.51661 23.6602 9.51661C23.9457 9.51661 24.2195 9.40521 24.4213 9.2069C24.6232 9.0086 24.7366 8.73965 24.7366 8.45921V7.74811C25.1101 7.61801 25.4558 7.4213 25.7565 7.16786L26.3849 7.52473C26.5484 7.61792 26.7341 7.66673 26.9231 7.66616C27.1602 7.66625 27.3906 7.58948 27.5787 7.44777C27.7668 7.30605 27.902 7.10732 27.9633 6.8824C28.0247 6.65749 28.0087 6.41897 27.918 6.20387C27.8272 5.98877 27.6667 5.80912 27.4614 5.69278ZM22.5837 4.75831C22.5837 4.54917 22.6469 4.34473 22.7651 4.17084C22.8834 3.99696 23.0515 3.86143 23.2482 3.78139C23.4449 3.70136 23.6614 3.68042 23.8702 3.72122C24.079 3.76202 24.2708 3.86273 24.4213 4.01061C24.5719 4.15849 24.6744 4.3469 24.7159 4.55202C24.7575 4.75713 24.7362 4.96974 24.6547 5.16296C24.5732 5.35617 24.4352 5.52131 24.2582 5.6375C24.0812 5.75369 23.8731 5.81571 23.6602 5.81571C23.3747 5.81571 23.1009 5.7043 22.899 5.506C22.6971 5.3077 22.5837 5.03875 22.5837 4.75831ZM26.5329 11.1173C26.2514 11.1635 26.0001 11.3178 25.8343 11.5461C25.6685 11.7744 25.6018 12.058 25.6489 12.3346C25.7582 12.9758 25.8131 13.6248 25.8131 14.2749C25.8156 17.1222 24.7503 19.8707 22.8206 21.9953C21.62 20.2863 19.9319 18.9642 17.9685 18.1952C19.0232 17.3792 19.7928 16.2607 20.1703 14.9951C20.5478 13.7296 20.5144 12.3799 20.0748 11.1338C19.6353 9.88776 18.8113 8.80721 17.7176 8.04245C16.6239 7.27769 15.3147 6.86673 13.9722 6.86673C12.6297 6.86673 11.3205 7.27769 10.2268 8.04245C9.13309 8.80721 8.30916 9.88776 7.86958 11.1338C7.43001 12.3799 7.39666 13.7296 7.77416 14.9951C8.15167 16.2607 8.92126 17.3792 9.97593 18.1952C8.01252 18.9642 6.32441 20.2863 5.12387 21.9953C3.60975 20.3192 2.62071 18.2493 2.27567 16.0342C1.93063 13.8192 2.24429 11.5534 3.17893 9.5093C4.11356 7.4652 5.62939 5.72981 7.54414 4.51181C9.45889 3.2938 11.691 2.64503 13.9722 2.6435C14.634 2.6434 15.2947 2.69734 15.9475 2.80476C16.2278 2.8482 16.5142 2.78117 16.7444 2.61824C16.9747 2.45532 17.1301 2.20968 17.1769 1.93476C17.2238 1.65983 17.1582 1.37787 16.9945 1.1502C16.8307 0.922533 16.5821 0.767574 16.3027 0.719033C13.3794 0.235953 10.3755 0.677972 7.7246 1.98127C5.07372 3.28457 2.91308 5.38171 1.55464 7.96989C0.196202 10.5581 -0.289744 13.5034 0.166965 16.3805C0.623675 19.2577 1.99941 21.9179 4.09553 23.9769C6.19165 26.036 8.8997 27.3874 11.8287 27.836C14.7576 28.2846 17.756 27.8073 20.3908 26.4729C23.0256 25.1384 25.1604 23.016 26.4872 20.412C27.814 17.808 28.264 14.8572 27.7722 11.9856C27.7251 11.7091 27.568 11.4622 27.3356 11.2993C27.1032 11.1365 26.8145 11.071 26.5329 11.1173ZM9.66645 13.2175C9.66645 12.381 9.91898 11.5632 10.3921 10.8677C10.8652 10.1721 11.5377 9.63 12.3245 9.30987C13.1112 8.98974 13.977 8.90598 14.8122 9.06918C15.6475 9.23238 16.4147 9.63521 17.0168 10.2267C17.619 10.8183 18.0291 11.5719 18.1952 12.3924C18.3614 13.2128 18.2761 14.0633 17.9502 14.8361C17.6243 15.609 17.0724 16.2695 16.3644 16.7343C15.6563 17.1991 14.8238 17.4471 13.9722 17.4471C12.8303 17.4471 11.7351 17.0015 10.9276 16.2083C10.1201 15.4151 9.66645 14.3393 9.66645 13.2175ZM6.717 23.4611C7.49572 22.2647 8.56849 21.2802 9.83642 20.5983C11.1044 19.9163 12.5267 19.5588 13.9722 19.5588C15.4178 19.5588 16.8401 19.9163 18.108 20.5983C19.3759 21.2802 20.4487 22.2647 21.2274 23.4611C19.153 25.0459 16.6001 25.9062 13.9722 25.9062C11.3443 25.9062 8.79139 25.0459 6.717 23.4611Z" fill="white"/>
</svg>
