<svg width="22" height="12" viewBox="0 0 22 12" fill="none" xmlns="http://www.w3.org/2000/svg">
<path d="M21.7071 1.70757L11.7071 11.7076C11.6142 11.8005 11.5039 11.8743 11.3825 11.9246C11.2611 11.975 11.131 12.0009 10.9996 12.0009C10.8682 12.0009 10.738 11.975 10.6166 11.9246C10.4952 11.8743 10.385 11.8005 10.2921 11.7076L0.292079 1.70757C0.104439 1.51993 -0.000976562 1.26543 -0.000976562 1.00007C-0.000976562 0.734704 0.104439 0.480208 0.292079 0.292567C0.47972 0.104927 0.734215 -0.000488281 0.999579 -0.000488281C1.26494 -0.000488281 1.51944 0.104927 1.70708 0.292567L10.9996 9.58632L20.2921 0.292567C20.385 0.199657 20.4953 0.125957 20.6167 0.0756741C20.7381 0.0253914 20.8682 -0.000488281 20.9996 -0.000488281C21.131 -0.000488281 21.2611 0.0253914 21.3825 0.0756741C21.5039 0.125957 21.6142 0.199657 21.7071 0.292567C21.8 0.385477 21.8737 0.495778 21.924 0.617171C21.9743 0.738564 22.0001 0.868673 22.0001 1.00007C22.0001 1.13146 21.9743 1.26157 21.924 1.38296C21.8737 1.50436 21.8 1.61466 21.7071 1.70757Z" fill="white"/>
</svg>
