<svg version="1.2" xmlns="http://www.w3.org/2000/svg" viewBox="0 0 24 24" width="35" height="35">
	<title>x-circle-svg</title>
	<style>
		.s0 { fill: #d6a330 } 
	</style>
	<path id="Layer" fill-rule="evenodd" class="s0" d="m2 12c0-5.5 4.5-10 10-10 5.5 0 10 4.5 10 10 0 5.5-4.5 10-10 10-5.5 0-10-4.5-10-10zm10-8c-2.1 0-4.2 0.8-5.7 2.3-1.5 1.5-2.3 3.6-2.3 5.7 0 2.1 0.8 4.2 2.3 5.7 1.5 1.5 3.6 2.3 5.7 2.3 2.1 0 4.2-0.8 5.7-2.3 1.5-1.5 2.3-3.6 2.3-5.7 0-2.1-0.8-4.2-2.3-5.7-1.5-1.5-3.6-2.3-5.7-2.3zm3.8 4.3q0.2 0.1 0.3 0.3 0 0.2 0 0.4 0 0.2 0 0.4-0.1 0.2-0.3 0.3l-2.3 2.4 2.3 2.3q0.3 0.3 0.3 0.7 0 0.4-0.3 0.7-0.3 0.3-0.7 0.3-0.4 0-0.7-0.3l-2.3-2.3-2.4 2.3q-0.3 0.3-0.7 0.3-0.4 0-0.7-0.3-0.3-0.3-0.3-0.7 0-0.4 0.3-0.7l2.4-2.3-2.4-2.4q-0.3-0.3-0.3-0.7 0-0.4 0.3-0.7 0.3-0.3 0.7-0.3 0.4 0 0.7 0.3l2.4 2.4 2.3-2.4q0.2-0.1 0.4-0.2 0.1-0.1 0.3-0.1 0.2 0 0.4 0.1 0.2 0.1 0.3 0.2z"/>
</svg>