<svg width="81" height="81" viewBox="0 0 81 81" fill="none" xmlns="http://www.w3.org/2000/svg">
<path d="M40.138 6.67969C33.5453 6.67969 27.1007 8.63465 21.619 12.2974C16.1374 15.9601 11.865 21.166 9.34205 27.2569C6.81913 33.3478 6.15902 40.05 7.44519 46.516C8.73137 52.9821 11.9061 58.9215 16.5678 63.5832C21.2296 68.245 27.169 71.4197 33.635 72.7059C40.1011 73.992 46.8033 73.3319 52.8941 70.809C58.985 68.2861 64.191 64.0137 67.8537 58.532C71.5164 53.0504 73.4714 46.6057 73.4714 40.013C73.4714 35.6356 72.6092 31.3011 70.934 27.2569C69.2589 23.2127 66.8035 19.5381 63.7083 16.4428C60.613 13.3475 56.9383 10.8922 52.8941 9.21704C48.85 7.54188 44.5154 6.67969 40.138 6.67969V6.67969ZM40.138 60.013C39.4788 60.013 38.8343 59.8175 38.2861 59.4513C37.738 59.085 37.3107 58.5644 37.0584 57.9553C36.8061 57.3462 36.7401 56.676 36.8687 56.0294C36.9974 55.3828 37.3148 54.7888 37.781 54.3227C38.2472 53.8565 38.8411 53.539 39.4877 53.4104C40.1343 53.2818 40.8046 53.3478 41.4136 53.6001C42.0227 53.8524 42.5433 54.2796 42.9096 54.8278C43.2759 55.376 43.4714 56.0204 43.4714 56.6797C43.4714 57.5637 43.1202 58.4116 42.4951 59.0367C41.8699 59.6618 41.0221 60.013 40.138 60.013ZM43.4714 42.813V46.6797C43.4714 47.5637 43.1202 48.4116 42.4951 49.0367C41.8699 49.6618 41.0221 50.013 40.138 50.013C39.254 50.013 38.4061 49.6618 37.781 49.0367C37.1559 48.4116 36.8047 47.5637 36.8047 46.6797V40.013C36.8047 39.129 37.1559 38.2811 37.781 37.656C38.4061 37.0309 39.254 36.6797 40.138 36.6797C41.1269 36.6797 42.0936 36.3864 42.9159 35.837C43.7381 35.2876 44.379 34.5067 44.7574 33.5931C45.1359 32.6795 45.2349 31.6741 45.042 30.7042C44.849 29.7343 44.3728 28.8434 43.6736 28.1442C42.9743 27.4449 42.0834 26.9687 41.1135 26.7758C40.1436 26.5828 39.1382 26.6819 38.2246 27.0603C37.311 27.4387 36.5301 28.0796 35.9807 28.9018C35.4313 29.7241 35.138 30.6908 35.138 31.6797C35.138 32.5637 34.7868 33.4116 34.1617 34.0367C33.5366 34.6618 32.6888 35.013 31.8047 35.013C30.9206 35.013 30.0728 34.6618 29.4477 34.0367C28.8226 33.4116 28.4714 32.5637 28.4714 31.6797C28.4626 29.514 29.0569 27.3887 30.1876 25.5416C31.3183 23.6945 32.9408 22.1986 34.8734 21.2214C36.8061 20.2441 38.9726 19.8241 41.1304 20.0083C43.2882 20.1926 45.3522 20.9738 47.0912 22.2645C48.8302 23.5553 50.1757 25.3046 50.9769 27.3166C51.7781 29.3286 52.0034 31.5239 51.6277 33.6568C51.252 35.7896 50.29 37.7758 48.8495 39.3929C47.409 41.01 45.5468 42.1942 43.4714 42.813V42.813Z" fill="#E02020"/>
</svg>
