<svg width="80" height="81" viewBox="0 0 80 81" fill="none" xmlns="http://www.w3.org/2000/svg">
<path d="M39.7344 6.68359C33.2076 6.68359 26.8274 8.63856 21.4006 12.3013C15.9737 15.964 11.7441 21.1699 9.24636 27.2608C6.74867 33.3517 6.09516 40.0539 7.36848 46.5199C8.64179 52.986 11.7847 58.9254 16.3999 63.5872C21.015 68.2489 26.895 71.4236 33.2964 72.7098C39.6978 73.996 46.333 73.3358 52.3629 70.8129C58.3929 68.29 63.5468 64.0176 67.1729 58.5359C70.799 53.0543 72.7344 46.6096 72.7344 40.0169C72.7344 35.6395 71.8808 31.305 70.2224 27.2608C68.564 23.2166 66.1332 19.542 63.0689 16.4467C60.0046 13.3514 56.3667 10.8961 52.3629 9.22094C48.3592 7.54579 44.068 6.68359 39.7344 6.68359V6.68359ZM39.7344 60.0169C39.0817 60.0169 38.4437 59.8214 37.901 59.4552C37.3583 59.0889 36.9354 58.5683 36.6856 57.9592C36.4358 57.3501 36.3705 56.6799 36.4978 56.0333C36.6251 55.3867 36.9394 54.7927 37.4009 54.3266C37.8624 53.8604 38.4505 53.5429 39.0906 53.4143C39.7307 53.2857 40.3942 53.3517 40.9972 53.604C41.6002 53.8563 42.1156 54.2835 42.4782 54.8317C42.8408 55.3799 43.0344 56.0243 43.0344 56.6836C43.0344 57.5677 42.6867 58.4155 42.0678 59.0406C41.449 59.6657 40.6096 60.0169 39.7344 60.0169ZM43.0344 42.8169V46.6836C43.0344 47.5677 42.6867 48.4155 42.0678 49.0406C41.449 49.6657 40.6096 50.0169 39.7344 50.0169C38.8592 50.0169 38.0198 49.6657 37.4009 49.0406C36.7821 48.4155 36.4344 47.5677 36.4344 46.6836V40.0169C36.4344 39.1329 36.7821 38.285 37.4009 37.6599C38.0198 37.0348 38.8592 36.6836 39.7344 36.6836C40.7134 36.6836 41.6704 36.3904 42.4845 35.8409C43.2985 35.2915 43.9329 34.5106 44.3076 33.597C44.6822 32.6834 44.7803 31.678 44.5893 30.7081C44.3983 29.7382 43.9268 28.8473 43.2346 28.1481C42.5423 27.4488 41.6603 26.9726 40.7001 26.7797C39.7399 26.5867 38.7446 26.6858 37.8401 27.0642C36.9356 27.4426 36.1625 28.0835 35.6186 28.9057C35.0747 29.728 34.7844 30.6947 34.7844 31.6836C34.7844 32.5676 34.4367 33.4155 33.8178 34.0406C33.199 34.6657 32.3596 35.0169 31.4844 35.0169C30.6092 35.0169 29.7698 34.6657 29.1509 34.0406C28.5321 33.4155 28.1844 32.5676 28.1844 31.6836C28.1758 29.5179 28.7641 27.3926 29.8834 25.5455C31.0028 23.6984 32.6091 22.2025 34.5224 21.2253C36.4357 20.248 38.5806 19.828 40.7168 20.0122C42.8531 20.1965 44.8964 20.9777 46.618 22.2684C48.3397 23.5592 49.6716 25.3085 50.4648 27.3205C51.258 29.3325 51.4811 31.5278 51.1091 33.6607C50.7372 35.7935 49.7848 37.7797 48.3587 39.3968C46.9326 41.0139 45.089 42.1981 43.0344 42.8169V42.8169Z" fill="#D6A330"/>
</svg>
