<svg width="66" height="66" viewBox="0 0 66 66" fill="none" xmlns="http://www.w3.org/2000/svg">
<path fill-rule="evenodd" clip-rule="evenodd" d="M66 33C66 51.2254 51.2254 66 33 66C14.7746 66 0 51.2254 0 33C0 14.7746 14.7746 0 33 0C51.2254 0 66 14.7746 66 33ZM19.0947 19.0947C20.6993 17.4902 23.3007 17.4902 24.9053 19.0947L32.5 26.6894L40.0947 19.0947C41.6993 17.4902 44.3007 17.4902 45.9053 19.0947C47.5098 20.6993 47.5098 23.3007 45.9053 24.9053L38.3106 32.5L45.9053 40.0947C47.5098 41.6993 47.5098 44.3007 45.9053 45.9053C44.3007 47.5098 41.6993 47.5098 40.0947 45.9053L32.5 38.3106L24.9053 45.9053C23.3007 47.5098 20.6993 47.5098 19.0947 45.9053C17.4902 44.3007 17.4902 41.6993 19.0947 40.0947L26.6894 32.5L19.0947 24.9053C17.4902 23.3007 17.4902 20.6993 19.0947 19.0947Z" fill="#F30000"/>
</svg>
