<svg width="65" height="65" viewBox="0 0 65 65" fill="none" xmlns="http://www.w3.org/2000/svg">
<path fill-rule="evenodd" clip-rule="evenodd" d="M32.5 65C41.1195 65 49.386 61.5759 55.481 55.481C61.5759 49.386 65 41.1195 65 32.5C65 23.8805 61.5759 15.614 55.481 9.51903C49.386 3.4241 41.1195 0 32.5 0C23.8805 0 15.614 3.4241 9.51903 9.51903C3.4241 15.614 0 23.8805 0 32.5C0 41.1195 3.4241 49.386 9.51903 55.481C15.614 61.5759 23.8805 65 32.5 65V65ZM46.4533 26.975C47.1125 26.1442 47.4207 25.0885 47.312 24.0336C47.2033 22.9786 46.6864 22.008 45.8717 21.329C45.0569 20.6501 44.009 20.3166 42.9517 20.4C41.8944 20.4833 40.9116 20.9768 40.2133 21.775L29.5208 34.6071L24.5375 29.6237C23.771 28.8841 22.7446 28.4751 21.6794 28.4848C20.6142 28.4946 19.5955 28.9223 18.8426 29.6759C18.0897 30.4295 17.663 31.4486 17.6542 32.5138C17.6455 33.579 18.0554 34.605 18.7958 35.3708L26.9208 43.4958C27.3199 43.8946 27.7976 44.2059 28.3236 44.4099C28.8496 44.6139 29.4123 44.7061 29.9759 44.6806C30.5395 44.6551 31.0916 44.5125 31.5971 44.2619C32.1025 44.0113 32.5502 43.6582 32.9117 43.225L46.4533 26.975Z" fill="#D6A330"/>
</svg>
